<?xml version="1.0" encoding="UTF-8" standalone="no"?>
<svg width="150px" height="190px" viewBox="0 0 150 190" version="1.1" xmlns="http://www.w3.org/2000/svg" xmlns:xlink="http://www.w3.org/1999/xlink">
    <!-- Generator: Sketch 39.1 (31720) - http://www.bohemiancoding.com/sketch -->
    <title>glazkina</title>
    <desc>Created with Sketch.</desc>
    <defs></defs>
    <g id="Page-1" stroke="none" stroke-width="1" fill="none" fill-rule="evenodd">
        <g id="glazkina">
            <path d="M149.08,85.232 C149.08,118.316 122.26,145.137 89.17,145.137 C56.09,145.137 29.27,118.316 29.27,85.232 C29.27,52.147 56.09,25.327 89.17,25.327 C122.26,25.327 149.08,52.147 149.08,85.232" id="Fill-1" fill="#91735D"></path>
            <path d="M145.81,132.521 C145.81,138.664 140.83,143.643 134.69,143.643 C128.55,143.643 123.57,138.664 123.57,132.521 C123.57,126.379 128.55,121.399 134.69,121.399 C140.83,121.399 145.81,126.379 145.81,132.521" id="Fill-265" fill="#F0D3C3"></path>
            <path d="M53.7,132.521 C53.7,138.664 48.72,143.643 42.58,143.643 C36.44,143.643 31.46,138.664 31.46,132.521 C31.46,126.379 36.44,121.399 42.58,121.399 C48.72,121.399 53.7,126.379 53.7,132.521" id="Fill-266" fill="#F0D3C3"></path>
            <path d="M46.49,132.005 C46.49,135.026 44.04,137.476 41.02,137.476 C38,137.476 35.55,135.026 35.55,132.005 C35.55,128.983 38,126.534 41.02,126.534 C44.04,126.534 46.49,128.983 46.49,132.005" id="Fill-267" fill="#D59F94"></path>
            <path d="M142.4,132.005 C142.4,135.026 139.95,137.476 136.93,137.476 C133.9,137.476 131.46,135.026 131.46,132.005 C131.46,128.983 133.9,126.534 136.93,126.534 C139.95,126.534 142.4,128.983 142.4,132.005" id="Fill-268" fill="#D59F94"></path>
            <path d="M38.02,103.808 C38.02,151.133 63.53,189.497 88.93,189.497 C114.92,189.497 139.85,151.133 139.85,103.808 C139.85,56.483 134.69,40.51 90.82,40.51 C62.7,40.51 38.02,56.483 38.02,103.808" id="Fill-269" fill="#F1D4C4"></path>
            <path d="M74.96,123.1 C74.96,126.654 67.08,127.534 63.53,127.534 C59.97,127.534 57.09,126.654 57.09,123.1 C57.09,119.547 59.97,118.667 63.53,118.667 C67.08,118.667 74.96,119.547 74.96,123.1" id="Fill-270" fill="#81827F"></path>
            <path d="M121.36,123.1 C121.36,126.654 118.47,127.534 114.92,127.534 C111.37,127.534 104.49,126.654 104.49,123.1 C104.49,119.547 111.37,118.667 114.92,118.667 C118.47,118.667 121.36,119.547 121.36,123.1" id="Fill-271" fill="#81827F"></path>
            <path d="M113.19,157.714 C113.19,167.314 102.33,175.097 88.93,175.097 C75.54,175.097 64.68,167.314 64.68,157.714" id="Fill-272" fill="#D59F94"></path>
            <path d="M113.19,158.677 C113.19,158.677 107,169.781 88.93,169.781 C71.48,169.781 64.68,158.677 64.68,158.677 L113.19,158.677" id="Fill-273" fill="#FFFFFF"></path>
            <path d="M49.34,113.945 C52.4,111.761 57,110.369 62.15,110.369 C67.2,110.369 71.71,111.708 74.77,113.816 C75.26,113.563 75.57,113.103 75.56,112.228 C75.55,110.098 64.9,104.247 52.52,106.531 C50.38,106.924 48.61,110.285 48.63,112.416 C48.63,113.228 48.9,113.686 49.34,113.945" id="Fill-392" fill="#91735D"></path>
            <path d="M129.01,113.945 C125.95,111.761 121.34,110.369 116.19,110.369 C111.15,110.369 106.63,111.708 103.58,113.816 C103.08,113.563 102.78,113.103 102.78,112.228 C102.8,110.098 113.44,104.247 125.83,106.531 C127.96,106.924 129.73,110.285 129.72,112.416 C129.71,113.228 129.45,113.686 129.01,113.945" id="Fill-393" fill="#91735D"></path>
            <path d="M112.88,157.714 C112.88,156.25 102.16,155.064 88.93,155.064 C75.71,155.064 64.99,156.25 64.99,157.714 C64.99,157.714 74.96,157.615 88.93,157.615 C102.48,157.615 112.88,157.714 112.88,157.714" id="Fill-493" fill="#D59F94"></path>
            <path d="M140.09,100.457 C140.09,100.457 151.97,54.528 121.36,45.789 C107.76,41.909 104.28,40.51 104.28,40.51 L122.64,39.69 L143.27,67.771 L140.09,100.457" id="Fill-494" fill="#91735D"></path>
            <path d="M121.36,45.789 C121.36,45.789 47.44,41.548 38.37,85.651 C38.37,85.651 39.5,51.401 58.25,44.243 C69.04,40.126 105.99,34.036 105.99,34.036 L121.36,45.789" id="Fill-495" fill="#91735D"></path>
            <path d="M121.36,45.789 C121.36,45.789 149.28,-16.665 69.49,5.2 C29.27,16.223 8.27,58.649 0.82,75.687 C0.82,75.687 30.12,65.382 49.5,57.401 C72.49,47.93 121.36,45.789 121.36,45.789" id="Fill-496" fill="#91735D"></path>
            <path d="M120.29,34.036 C120.29,34.036 -38.68,18.5 41.02,126.534 C41.02,126.534 35.55,27.891 120.29,34.036" id="Fill-497" fill="#91735D"></path>
            <path d="M121.36,45.789 C121.36,45.789 136.93,-36.219 19.42,68.001 C19.42,68.001 105.78,1.063 121.36,45.789" id="Fill-498" fill="#A4866E"></path>
            <path d="M121.36,45.789 C121.36,45.789 94.82,2.547 38.02,79.897 C38.02,79.897 95.16,25.213 121.36,45.789" id="Fill-499" fill="#A4866E"></path>
            <path d="M122.64,39.69 C122.64,39.69 139.84,23.781 149.08,53.781 C149.08,53.781 130.96,50.099 122.64,39.69" id="Fill-500" fill="#91735D"></path>
        </g>
    </g>
</svg>