<?xml version="1.0" encoding="UTF-8" standalone="no"?>
<svg width="191px" height="247px" viewBox="0 0 191 247" version="1.1" xmlns="http://www.w3.org/2000/svg" xmlns:xlink="http://www.w3.org/1999/xlink">
    <!-- Generator: Sketch 39.1 (31720) - http://www.bohemiancoding.com/sketch -->
    <title>milnikov</title>
    <desc>Created with Sketch.</desc>
    <defs>
        <rect id="path-1" x="0" y="114" width="48" height="35" rx="17.5"></rect>
        <mask id="mask-2" maskContentUnits="userSpaceOnUse" maskUnits="objectBoundingBox" x="0" y="0" width="48" height="35" fill="white">
            <use xlink:href="#path-1"></use>
        </mask>
        <rect id="path-3" x="143" y="114" width="48" height="35" rx="17.5"></rect>
        <mask id="mask-4" maskContentUnits="userSpaceOnUse" maskUnits="objectBoundingBox" x="0" y="0" width="48" height="35" fill="white">
            <use xlink:href="#path-3"></use>
        </mask>
        <rect id="path-5" x="0" y="0" width="26" height="30"></rect>
    </defs>
    <g id="Page-1" stroke="none" stroke-width="1" fill="none" fill-rule="evenodd">
        <g id="Artboard-Copy-6" transform="translate(-165.000000, -139.000000)">
            <g id="milnikov" transform="translate(165.000000, 139.000000)">
                <use id="Rectangle" stroke="#FFE9CF" mask="url(#mask-2)" stroke-width="10" fill="#D7C8B6" xlink:href="#path-1"></use>
                <use id="Rectangle-Copy-2" stroke="#FFE9CF" mask="url(#mask-4)" stroke-width="10" fill="#D7C8B6" xlink:href="#path-3"></use>
                <rect id="Rectangle-Copy" fill="#6A3600" x="24" y="53" width="142" height="194" rx="39"></rect>
                <rect id="Rectangle-Copy-5" fill="#FFEAD0" x="24" y="0" width="142" height="219" rx="71"></rect>
                <path d="M163,149 C163,188.764502 132.56362,221 95,221 C57.444637,221 27,188.7697 27,149" id="Rectangle-Copy-3" stroke="#6A3600" stroke-width="6" fill="#6A3600"></path>
                <rect id="Rectangle-Copy-4" fill="#FFEAD0" x="24" y="44" width="142" height="128" rx="47"></rect>
                <rect id="Rectangle-15" fill="#6A3600" x="68" y="146" width="54" height="60" rx="19"></rect>
                <rect id="Rectangle-2-Copy-2" fill="#FFFFFF" x="82" y="162" width="26" height="10"></rect>
                <g id="Rectangle-2-Copy-3" transform="translate(82.000000, 162.000000)">
                    <mask id="mask-6" fill="white">
                        <use xlink:href="#path-5"></use>
                    </mask>
                    <use id="Mask" fill="#2A1111" xlink:href="#path-5"></use>
                    <rect fill="#FFFFFF" mask="url(#mask-6)" x="0" y="-3" width="26" height="10"></rect>
                    <circle id="Oval" fill="#691414" mask="url(#mask-6)" cx="8" cy="29" r="8"></circle>
                    <circle id="Oval-Copy" fill="#691414" mask="url(#mask-6)" cx="19" cy="29" r="8"></circle>
                </g>
                <rect id="Rectangle-2-Copy" fill="#FFE9CF" x="87" y="128" width="16" height="23"></rect>
                <path d="M86,124 C86,116.268014 79.7319865,110 72,110 C64.2680135,110 58,116.268014 58,124" id="Oval-12" fill="#3D2206"></path>
                <path d="M132,124 C132,116.268014 125.731986,110 118,110 C110.268014,110 104,116.268014 104,124" id="Oval-12-Copy" fill="#3D2206"></path>
                <path d="M86,129 C86,121.268014 79.7319865,115 72,115 C64.2680135,115 58,121.268014 58,129" id="Oval-12-Copy-3" fill="#FFE9CF"></path>
                <path d="M132,129 C132,121.268014 125.731986,115 118,115 C110.268014,115 104,121.268014 104,129" id="Oval-12-Copy-2" fill="#FFE9CF"></path>
                <rect id="Rectangle-16" fill="#6A3600" transform="translate(124.626386, 85.969532) rotate(-345.000000) translate(-124.626386, -85.969532) " x="112.626386" y="81.9695318" width="24" height="8" rx="4"></rect>
                <rect id="Rectangle-16-Copy" fill="#6A3600" transform="translate(65.626386, 85.969532) scale(-1, 1) rotate(-345.000000) translate(-65.626386, -85.969532) " x="53.6263861" y="81.9695318" width="24" height="8" rx="4"></rect>
            </g>
        </g>
    </g>
</svg>