<?xml version="1.0" encoding="UTF-8" standalone="no"?>
<svg width="183px" height="253px" viewBox="0 0 183 253" version="1.1" xmlns="http://www.w3.org/2000/svg" xmlns:xlink="http://www.w3.org/1999/xlink">
    <!-- Generator: Sketch 39.1 (31720) - http://www.bohemiancoding.com/sketch -->
    <title>schuchkin</title>
    <desc>Created with Sketch.</desc>
    <defs>
        <path d="M149,182.999985 C149,175.268007 155.277498,169 163.008991,169 L169.991009,169 C177.727961,169 183.405479,175.242473 182.673614,182.927054 L181.326386,197.072946 C180.593843,204.764646 173.726687,211 165.99646,211 L163.00354,211 C155.269598,211 149,204.734867 149,197.000015 L149,182.999985 Z" id="path-1"></path>
        <mask id="mask-2" maskContentUnits="userSpaceOnUse" maskUnits="objectBoundingBox" x="0" y="0" width="33.7371248" height="42" fill="white">
            <use xlink:href="#path-1"></use>
        </mask>
        <path d="M0.326386072,182.927054 C-0.406156728,175.235354 5.27749844,169 13.0089913,169 L19.9910087,169 C27.727961,169 34,175.265133 34,182.999985 L34,197.000015 C34,204.731993 27.7266874,211 19.9964601,211 L17.0035399,211 C9.26959838,211 2.40547878,204.757527 1.67361393,197.072946 L0.326386072,182.927054 Z" id="path-3"></path>
        <mask id="mask-4" maskContentUnits="userSpaceOnUse" maskUnits="objectBoundingBox" x="0" y="0" width="33.7371775" height="42" fill="white">
            <use xlink:href="#path-3"></use>
        </mask>
        <circle id="path-5" cx="21" cy="21" r="21"></circle>
    </defs>
    <g id="Page-1" stroke="none" stroke-width="1" fill="none" fill-rule="evenodd">
        <g id="Artboard-Copy-10" transform="translate(-169.000000, -97.000000)">
            <g id="schuchkin" transform="translate(169.000000, 80.000000)">
                <use id="Rectangle" stroke="#FFE9CF" mask="url(#mask-2)" stroke-width="12" fill="#EFD7BB" xlink:href="#path-1"></use>
                <use id="Rectangle-Copy" stroke="#FFE9CF" mask="url(#mask-4)" stroke-width="12" fill="#EFD7BB" xlink:href="#path-3"></use>
                <rect id="Rectangle-Copy-5" fill="#422D14" x="20" y="36" width="142" height="167" rx="32"></rect>
                <rect id="Rectangle-Copy-8" fill="#FFEAD0" x="20" y="72" width="142" height="167" rx="71"></rect>
                <path d="M25,170.207243 L25,68.7219137 C25,48.9932456 39.0470947,33 56.3600426,33 L126.639957,33 C143.959631,33 158,48.9919187 158,68.7219137 L158,170.207243" id="Rectangle-Copy-6" stroke="#422D14" stroke-width="10" stroke-linecap="round"></path>
                <path d="M43.8902033,180.450412 L162,180.450412 L162,204.909582 C162,210.985429 158.73476,219.607352 154.71741,224.155269 L118.856539,264.752245 C116.296399,267.6505 111.088542,270 107.220653,270 L74.0367635,270 C70.1705816,270 64.9698826,267.648275 62.4192163,264.745613 L27.2592149,224.733476 C23.2500612,220.171053 20,211.553638 20,205.480072 L20,180 L43.8902033,180.450412 Z" id="Path-2" fill="#FFE9CF"></path>
                <g id="Rectangle-3-Copy-+-Rectangle-3-Copy-2-Mask" transform="translate(70.000000, 200.000000)">
                    <mask id="mask-6" fill="white">
                        <use xlink:href="#path-5"></use>
                    </mask>
                    <use id="Mask" fill="#6B2525" xlink:href="#path-5"></use>
                    <rect id="Rectangle-3-Copy" fill="#FFFFFF" mask="url(#mask-6)" x="0" y="6" width="11" height="19.2788086" rx="2"></rect>
                    <rect id="Rectangle-3-Copy-2" fill="#FFFFFF" mask="url(#mask-6)" x="31" y="6" width="11" height="19.2788086" rx="2"></rect>
                    <rect id="Rectangle-3-Copy-3" fill="#FFFFFF" mask="url(#mask-6)" x="10" y="38" width="21" height="16" rx="4"></rect>
                </g>
                <rect id="Rectangle-3" fill="#FFFFFF" x="81" y="211" width="20" height="21" rx="4"></rect>
                <rect id="Rectangle-2" fill="#FFE9CF" x="56" y="188" width="70" height="32"></rect>
                <g id="Group" opacity="0.56873834" transform="translate(80.000000, 198.000000)" stroke="#CEB18F" stroke-width="4">
                    <path d="M7,3 C7,5.76142375 9.01471863,8 11.5,8 L11.5,8 C13.9852814,8 16,5.76142375 16,3" id="Oval-Copy-2"></path>
                    <path d="M23,4 C23,1.790861 21.4329966,5.07530526e-16 19.5,0 L19.5,0 C17.5670034,0 16,1.790861 16,4" id="Oval-Copy-3" stroke-linecap="round"></path>
                    <path d="M7,4 C7,1.790861 5.43299662,5.07530526e-16 3.5,0 L3.5,0 C1.56700338,0 -5.68434189e-14,1.790861 -5.68434189e-14,4" id="Oval-Copy-4" stroke-linecap="round"></path>
                </g>
                <path d="M65.3345307,178.04933 C72.6989886,178.04933 78.6690613,179.698989 78.6690613,172.334531 C78.6690613,164.970073 72.6989886,159 65.3345307,159 C57.9700727,159 52,164.970073 52,172.334531 C52,179.698989 57.9700727,178.04933 65.3345307,178.04933 Z" id="Oval-13-Copy" fill="#41382E"></path>
                <path d="M115.334531,178.04933 C122.698989,178.04933 128.669061,179.698989 128.669061,172.334531 C128.669061,164.970073 122.698989,159 115.334531,159 C107.970073,159 102,164.970073 102,172.334531 C102,179.698989 107.970073,178.04933 115.334531,178.04933 Z" id="Oval-13-Copy-2" fill="#41382E"></path>
                <path d="M65.3345307,186.04933 C72.6989886,186.04933 78.6690613,187.698989 78.6690613,180.334531 C78.6690613,172.970073 72.6989886,167 65.3345307,167 C57.9700727,167 52,172.970073 52,180.334531 C52,187.698989 57.9700727,186.04933 65.3345307,186.04933 Z" id="Oval-13-Copy-4" fill="#FFE9CF"></path>
                <path d="M115.334531,186.04933 C122.698989,186.04933 128.669061,187.698989 128.669061,180.334531 C128.669061,172.970073 122.698989,167 115.334531,167 C107.970073,167 102,172.970073 102,180.334531 C102,187.698989 107.970073,186.04933 115.334531,186.04933 Z" id="Oval-13-Copy-3" fill="#FFE9CF"></path>
                <rect id="Rectangle-20-Copy" fill="#422D14" transform="translate(51.487731, 146.125087) scale(-1, 1) rotate(21.000000) translate(-51.487731, -146.125087) " x="40.4622435" y="141.125087" width="22.0509744" height="10" rx="5"></rect>
                <rect id="Rectangle-20-Copy-2" fill="#422D14" transform="translate(130.487731, 146.125087) rotate(21.000000) translate(-130.487731, -146.125087) " x="119.462244" y="141.125087" width="22.0509744" height="10" rx="5"></rect>
                <path d="M92.5,87 C107.135546,87 119,75.1355459 119,60.5 C119,45.8644541 107.135546,39 92.5,39 C77.8644541,39 66,45.8644541 66,60.5 C66,75.1355459 77.8644541,87 92.5,87 Z" id="Oval-15" fill="#422D14"></path>
                <circle id="Oval-15-Copy" fill="#FFE9CF" cx="133" cy="83" r="20"></circle>
                <circle id="Oval-15-Copy-2" fill="#FFE9CF" cx="51" cy="83" r="21"></circle>
                <path d="M74.7553941,75.7643771 C88.0617878,75.7643771 98.8487512,64.9498255 98.8487512,51.6094001 C98.8487512,38.2689747 74.7553941,7.73607455 74.7553941,7.73607455 C74.7553941,7.73607455 50.6620369,38.2689747 50.6620369,51.6094001 C50.6620369,64.9498255 61.4490004,75.7643771 74.7553941,75.7643771 Z" id="Oval-16" fill="#422D14" transform="translate(74.755394, 41.750226) rotate(-44.000000) translate(-74.755394, -41.750226) "></path>
                <path d="M71.7553941,101.764377 C85.0617878,101.764377 95.8487512,90.9498255 95.8487512,77.6094001 C95.8487512,64.2689747 71.7553941,33.7360746 71.7553941,33.7360746 C71.7553941,33.7360746 47.6620369,64.2689747 47.6620369,77.6094001 C47.6620369,90.9498255 58.4490004,101.764377 71.7553941,101.764377 Z" id="Oval-16-Copy-4" fill="#422D14" transform="translate(71.755394, 67.750226) scale(1, -1) rotate(-44.000000) translate(-71.755394, -67.750226) "></path>
                <path d="M55.7553941,96.7643771 C69.0617878,96.7643771 79.8487512,85.9498255 79.8487512,72.6094001 C79.8487512,59.2689747 55.7553941,28.7360746 55.7553941,28.7360746 C55.7553941,28.7360746 31.6620369,59.2689747 31.6620369,72.6094001 C31.6620369,85.9498255 42.4490004,96.7643771 55.7553941,96.7643771 Z" id="Oval-16-Copy-5" fill="#422D14" transform="translate(55.755394, 62.750226) scale(1, -1) rotate(-44.000000) translate(-55.755394, -62.750226) "></path>
                <path d="M94.7553941,75.7643771 C108.061788,75.7643771 118.848751,64.9498255 118.848751,51.6094001 C118.848751,38.2689747 94.7553941,7.73607455 94.7553941,7.73607455 C94.7553941,7.73607455 70.6620369,38.2689747 70.6620369,51.6094001 C70.6620369,64.9498255 81.4490004,75.7643771 94.7553941,75.7643771 Z" id="Oval-16-Copy" fill="#422D14" transform="translate(94.755394, 41.750226) rotate(-44.000000) translate(-94.755394, -41.750226) "></path>
                <path d="M71.7553941,101.764377 C85.0617878,101.764377 95.8487512,90.9498255 95.8487512,77.6094001 C95.8487512,64.2689747 71.7553941,33.7360746 71.7553941,33.7360746 C71.7553941,33.7360746 47.6620369,64.2689747 47.6620369,77.6094001 C47.6620369,90.9498255 58.4490004,101.764377 71.7553941,101.764377 Z" id="Oval-16-Copy-3" fill="#422D14" transform="translate(71.755394, 67.750226) scale(1, -1) rotate(-44.000000) translate(-71.755394, -67.750226) "></path>
                <path d="M87.1526903,101.881976 C97.9229017,101.881976 106.653883,93.1286642 106.653883,82.3309075 C106.653883,71.5331508 87.1526903,46.819784 87.1526903,46.819784 C87.1526903,46.819784 67.6514974,71.5331508 67.6514974,82.3309075 C67.6514974,93.1286642 76.3824789,101.881976 87.1526903,101.881976 Z" id="Oval-16-Copy-2" fill="#422D14" transform="translate(87.152690, 74.350880) scale(1, -1) rotate(-44.000000) translate(-87.152690, -74.350880) "></path>
                <circle id="Oval-17" fill="#E4C9AA" cx="121.5" cy="220.5" r="3.5"></circle>
                <circle id="Oval-17-Copy" fill="#FFE9CF" cx="117.5" cy="220.5" r="5.5"></circle>
                <circle id="Oval-17-Copy-3" fill="#E4C9AA" transform="translate(58.500000, 220.500000) scale(-1, 1) translate(-58.500000, -220.500000) " cx="58.5" cy="220.5" r="3.5"></circle>
                <circle id="Oval-17-Copy-2" fill="#FFE9CF" transform="translate(62.500000, 220.500000) scale(-1, 1) translate(-62.500000, -220.500000) " cx="62.5" cy="220.5" r="5.5"></circle>
            </g>
        </g>
    </g>
</svg>