<?xml version="1.0" encoding="UTF-8" standalone="no"?>
<svg width="130px" height="197px" viewBox="0 0 130 197" version="1.1" xmlns="http://www.w3.org/2000/svg" xmlns:xlink="http://www.w3.org/1999/xlink">
    <!-- Generator: Sketch 39.1 (31720) - http://www.bohemiancoding.com/sketch -->
    <title>Group 4</title>
    <desc>Created with Sketch.</desc>
    <defs></defs>
    <g id="Page-1" stroke="none" stroke-width="1" fill="none" fill-rule="evenodd">
        <g id="Group-4">
            <path d="M114.12,136.345 C110.956,134.01 111.456,123.67 115.237,113.251 C119.017,102.831 124.647,96.277 127.81,98.612 C130.974,100.947 130.474,111.287 126.693,121.707 C122.913,132.126 117.283,138.68 114.12,136.345 Z" id="Fill-9" fill="#F0D3C3"></path>
            <path d="M121.86,120.377 C119.659,126.4 116.444,130.208 114.681,128.883 C112.918,127.558 113.274,121.601 115.476,115.578 C117.678,109.556 120.892,105.748 122.655,107.073 C124.418,108.398 124.062,114.355 121.86,120.377" id="Fill-10" fill="#D59F94"></path>
            <path d="M3.903,120.707 C7.684,131.126 13.313,137.68 16.477,135.345 C19.64,133.01 19.14,122.67 15.36,112.251 C11.579,101.831 5.95,95.277 2.786,97.612 C-0.377,99.947 0.123,110.287 3.903,120.707" id="Fill-11" fill="#F0D3C3"></path>
            <path d="M8.736,119.377 C10.938,125.4 14.152,129.208 15.915,127.883 C17.678,126.558 17.322,120.601 15.12,114.578 C12.919,108.556 9.705,104.748 7.942,106.073 C6.179,107.398 6.534,113.355 8.736,119.377" id="Fill-12" fill="#D59F94"></path>
            <path d="M121.456,72.023 C121.456,99.666 93.661,122.075 65.542,122.075 C37.422,122.075 10.627,99.666 10.627,72.023 C10.627,44.379 25.753,21.97 65.542,21.97 C106.338,21.97 121.456,44.379 121.456,72.023" id="Fill-13" fill="#584939"></path>
            <path d="M114.183,142.156 C114.183,172.033 85.094,196.252 65.268,196.252 C46.649,196.252 16.354,172.033 16.354,142.156 C16.354,112.28 37.149,88.061 65.268,88.061 C93.388,88.061 114.183,112.28 114.183,142.156" id="Fill-310" fill="#837565"></path>
            <path d="M67.973,190.281 L63.118,190.281 C50.068,190.281 21.526,172.538 17.631,139.422 L10.631,88.589 C10.631,60.5 36.339,37.73 63.118,37.73 L67.973,37.73 C94.751,37.73 121.46,60.5 121.46,88.589 L113.46,139.422 C109.989,170.615 82.212,190.281 67.973,190.281" id="Fill-311" fill="#F0D3C3"></path>
            <path d="M29.708,116.111 C29.708,119.688 32.854,119.588 36.734,119.588 C40.614,119.588 48.759,119.688 48.759,116.111 C48.759,112.533 40.614,111.633 36.734,111.633 C32.854,111.633 29.708,112.533 29.708,116.111" id="Fill-312" fill="#0B0C0A"></path>
            <path d="M81.58,116.111 C81.58,119.688 89.725,119.588 93.605,119.588 C97.485,119.588 100.631,119.688 100.631,116.111 C100.631,112.533 97.485,111.633 93.605,111.633 C89.725,111.633 81.58,112.533 81.58,116.111" id="Fill-313" fill="#0B0C0A"></path>
            <path d="M76.993,149.93 C76.993,153.507 65.526,156.407 65.526,156.407 C65.526,156.407 54.06,153.507 54.06,149.93" id="Fill-314" fill="#D59F94"></path>
            <path d="M58.84,188.309 C58.84,185.369 61.718,182.985 65.268,182.985 C68.818,182.985 71.696,185.369 71.696,188.309 C71.696,191.249 68.818,192.512 65.268,192.512 C61.718,192.512 58.84,191.249 58.84,188.309" id="Fill-326" fill="#837565"></path>
            <path d="M66.234,153.967 L65.85,153.967 C63.286,153.967 59.208,153.101 59.208,152.033 L61.208,137.207 C61.208,136.139 63.286,135.273 65.85,135.273 L66.234,135.273 C68.797,135.273 70.875,136.139 70.875,137.207 L72.875,152.033 C72.875,153.101 68.797,153.967 66.234,153.967" id="Fill-360" fill="#D59F94"></path>
            <path d="M68.525,168.359 L63.775,168.359 C61.136,168.359 52.13,164.519 44.525,162.579 L61.525,163.579 L70.558,163.579 C77.865,163.579 86.558,159.579 86.558,159.579 C81.58,165.531 71.165,168.359 68.525,168.359" id="Fill-388" fill="#D59F94"></path>
            <path d="M41.25,97.327 L89.833,97.327 C101.028,97.327 110.854,103.162 116.456,111.95 L116.456,69.258 C116.456,50.853 101.536,35.933 83.131,35.933 L47.952,35.933 C29.547,35.933 9.972,56.209 9.972,74.614 L14.627,117.262 C18.482,109.281 30.055,97.327 41.25,97.327" id="Fill-424" fill="#F0D3C3"></path>
            <path d="M71.02,57.052 L71.02,57.052 C57.193,59.937 42.101,51.592 38.569,34.668 L91.152,33.664 C91.286,44.66 84.849,54.167 71.02,57.052" id="Fill-425" fill="#584939"></path>
            <path d="M77.58,54.961 C77.58,54.961 129.271,25.418 116.456,119.791 C116.456,119.791 139.149,33.808 91.892,32.186 C56.876,30.984 77.58,54.961 77.58,54.961" id="Fill-426" fill="#584939"></path>
            <path d="M55.411,55.618 C55.411,55.618 -0.518,29.615 14.627,117.262 C14.627,117.262 -6.185,37.269 39.215,33.938 C74.157,31.374 55.411,55.618 55.411,55.618" id="Fill-427" fill="#584939"></path>
            <path d="M78.682,109.582 L86.914,106.511 C92.968,104.252 99.608,104.089 105.77,106.035 C107.396,106.548 108.068,106.719 107.815,105.841 C107.815,105.841 108.095,99.011 100.808,97.532 C90.948,95.531 73.592,105.856 74.181,107.904 C74.77,109.951 76.635,110.171 78.682,109.582" id="Fill-428" fill="#4D3621"></path>
            <path d="M53.428,110.414 C53.428,110.414 26.948,106 21.934,110.075 C20.61,111.151 22.928,107.665 22.928,107.665 C25.543,102.574 32.05,100.467 34.177,100.574 C40.11,100.872 56.792,105.078 56.997,107.198 C57.202,109.319 55.549,110.209 53.428,110.414" id="Fill-429" fill="#4D3621"></path>
            <path d="M88.986,163.55 C88.986,163.55 94.594,160.709 88.986,157.487 C88.986,157.487 90.932,160.175 88.986,163.55" id="Fill-430" fill="#D59F94"></path>
            <path d="M69.468,184.285 C69.468,184.285 72.771,188.532 82.606,185.656 C92.44,182.781 79.315,190.281 79.315,190.281 L69.468,193.031 L69.468,184.285" id="Fill-431" fill="#837565"></path>
            <path d="M61.026,184.285 C61.026,184.285 56.723,188.532 46.889,185.656 C37.055,182.781 50.18,190.281 50.18,190.281 L60.026,193.031 L61.026,184.285" id="Fill-432" fill="#837565"></path>
            <path d="M120.965,70.364 L9.632,70.364 L9.632,40.277 C9.632,29.309 16.515,19.521 26.836,15.81 L56.477,5.155 C62.16,3.112 68.376,3.111 74.059,5.152 L103.752,15.814 C114.078,19.522 120.965,29.313 120.965,40.284 L120.965,70.364" id="Fill-433" fill="#AE252A"></path>
            <path d="M116.266,71.099 L15.825,71.099 L15.825,43.956 C15.825,34.061 22.034,25.23 31.346,21.883 L58.087,12.27 C63.214,10.427 68.822,10.426 73.949,12.267 L100.737,21.886 C110.052,25.231 116.266,34.064 116.266,43.962 L116.266,71.099" id="Fill-434" fill="#FFFFFF"></path>
            <path d="M9.774,70.017 L22.271,90.612 C24.058,93.556 27.769,96.555 30.793,94.906 C39.27,90.281 53.369,87.721 65.174,87.721 C77.351,87.721 91.154,90.281 100.601,94.982 C103.783,96.565 107.538,93.533 109.282,90.435 L120.762,70.041 C103.482,63.615 84.74,60.677 65.174,60.677 C45.68,60.677 26.149,63.281 9.774,70.017" id="Fill-435" fill="#AE252A"></path>
            <path d="M74.166,5.917 C74.166,8.662 70.327,10.887 65.59,10.887 C60.854,10.887 57.014,8.662 57.014,5.917 C57.014,3.173 60.854,0.948 65.59,0.948 C70.327,0.948 74.166,3.173 74.166,5.917" id="Fill-436" fill="#AE252A"></path>
            <path d="M78.114,29.708 C76.147,26.792 72.849,22.322 69.877,20.282 L42.452,49.599 C41.854,50.238 42.307,51.282 43.182,51.282 L87.544,51.282 C87.544,51.282 85.98,46.772 78.71,46.772 L52.71,46.772 L71.044,28.449 L76.922,31.11 C77.801,31.508 78.654,30.508 78.114,29.708" id="Fill-437" fill="#0B0C0A"></path>
        </g>
    </g>
</svg>