<?xml version="1.0" encoding="UTF-8" standalone="no"?>
<svg width="127px" height="186px" viewBox="0 0 127 186" version="1.1" xmlns="http://www.w3.org/2000/svg" xmlns:xlink="http://www.w3.org/1999/xlink">
    <!-- Generator: Sketch 39.1 (31720) - http://www.bohemiancoding.com/sketch -->
    <title>visokovskiy</title>
    <desc>Created with Sketch.</desc>
    <defs></defs>
    <g id="Page-1" stroke="none" stroke-width="1" fill="none" fill-rule="evenodd">
        <g id="visokovskiy">
            <path d="M126.13,112.394 C126.13,122.002 121.15,129.791 115.01,129.791 C108.87,129.791 103.89,122.002 103.89,112.394 C103.89,102.786 108.87,94.997 115.01,94.997 C121.15,94.997 126.13,102.786 126.13,112.394" id="Fill-278" fill="#F0D3C3"></path>
            <path d="M27.02,112.394 C27.02,122.002 22.04,129.791 15.9,129.791 C9.75,129.791 4.78,122.002 4.78,112.394 C4.78,102.786 9.75,94.997 15.9,94.997 C22.04,94.997 27.02,102.786 27.02,112.394" id="Fill-279" fill="#F0D3C3"></path>
            <path d="M19.81,111.586 C19.81,116.312 17.36,120.144 14.33,120.144 C11.31,120.144 8.86,116.312 8.86,111.586 C8.86,106.86 11.31,103.029 14.33,103.029 C17.36,103.029 19.81,106.86 19.81,111.586" id="Fill-280" fill="#D59F94"></path>
            <path d="M122.71,111.586 C122.71,116.312 120.26,120.144 117.24,120.144 C114.22,120.144 111.77,116.312 111.77,111.586 C111.77,106.86 114.22,103.029 117.24,103.029 C120.26,103.029 122.71,106.86 122.71,111.586" id="Fill-281" fill="#D59F94"></path>
            <path d="M103.89,30.658 C103.89,30.658 103.89,-38.988 0.89,35.012 C0.89,35.012 4.59,54.559 23.96,46.573 C46.96,37.096 103.89,30.658 103.89,30.658" id="Fill-296" fill="#584939"></path>
            <path d="M117.64,94.709 L10.19,94.709 L10.19,60.544 C10.19,39.921 26.91,23.204 47.53,23.204 L82.3,23.204 C102.92,23.204 119.64,39.921 119.64,60.544 L117.64,94.709" id="Fill-337" fill="#584939"></path>
            <path d="M115.26,65.45 C119.13,85.325 135.43,117.054 64.96,117.054 C-5.07,117.054 9.93,80.605 15.37,61.859" id="Fill-338" fill="#584939"></path>
            <path d="M115.87,73.256 C115.87,100.9 93.08,166.214 64.96,166.214 C36.84,166.214 14.04,100.9 14.04,73.256 C14.04,45.613 36.84,23.204 64.96,23.204 C93.08,23.204 115.87,45.613 115.87,73.256" id="Fill-339" fill="#584939"></path>
            <path d="M64.96,185.346 L64.96,185.346 C48.59,185.346 14.04,164.102 14.04,137.897 L14.04,84.616 C13.36,44.933 36.84,37.167 64.96,37.167 C93.08,37.167 112.45,40.247 115.87,84.616 L115.87,137.897 C115.87,164.102 84.31,185.346 64.96,185.346" id="Fill-340" fill="#F0D3C3"></path>
            <path d="M48.18,113.852 C48.18,113.852 40.56,116.157 36.03,114.874 C31.5,113.591 28.81,112.647 29.78,109.205 C30.76,105.763 36.67,105.938 41.2,107.221 C45.73,108.504 49.16,110.41 48.18,113.852" id="Fill-341" fill="#4D3621"></path>
            <path d="M81.19,113.852 C81.19,113.852 88.81,116.157 93.34,114.874 C97.87,113.591 100.57,112.647 99.59,109.205 C98.61,105.763 92.7,105.938 88.17,107.221 C83.64,108.504 80.21,110.41 81.19,113.852" id="Fill-342" fill="#4D3621"></path>
            <path d="M115.33,78.605 C118.14,78.054 113.82,33.863 73.89,46.356 C55.38,44.73 79.95,27.195 79.95,27.195 L112.45,42.825 L115.26,63.45 L115.33,78.605" id="Fill-343" fill="#584939"></path>
            <path d="M37.78,94.711 C46.28,97.588 48.35,99.74 51.35,100.19 L51.82,100.208 C58.93,92.679 53.86,94.571 37.97,89.757 C30.44,87.477 23.57,93.651 23.36,99.123 L23.83,99.141 C25.53,96.354 31.51,92.586 37.78,94.711" id="Fill-344" fill="#584939"></path>
            <path d="M92.54,94.711 C84.05,97.588 81.97,99.74 78.97,100.19 L78.5,100.208 C71.39,92.679 76.46,94.571 92.35,89.757 C99.88,87.477 106.75,93.651 106.96,99.123 L106.49,99.141 C104.79,96.354 98.82,92.586 92.54,94.711" id="Fill-345" fill="#584939"></path>
            <path d="M65.95,144.49 L65.57,144.49 C63.01,144.49 58.93,143.171 58.93,141.544 L60.93,118.949 C60.93,117.322 63.01,116.002 65.57,116.002 L65.95,116.002 C68.52,116.002 70.59,117.322 70.59,118.949 L72.59,141.544 C72.59,143.171 68.52,144.49 65.95,144.49" id="Fill-346" fill="#D59F94"></path>
            <path d="M65.76,159.351 C58.28,159.351 53.55,158.346 47.21,156.214 C49.45,162.778 56.9,165.601 65.76,165.601 C74.62,165.601 82.08,162.778 84.31,156.214 C77.24,159.312 73.25,159.351 65.76,159.351" id="Fill-347" fill="#D59F94"></path>
            <path d="M86.59,38.884 C86.59,43.427 76.82,47.109 64.76,47.109 C52.7,47.109 42.93,43.427 42.93,38.884 C42.93,34.341 52.7,30.658 64.76,30.658 C76.82,30.658 86.59,34.341 86.59,38.884" id="Fill-348" fill="#584939"></path>
            <path d="M14.04,78.605 C14.04,78.605 16.04,31.834 53.95,46.029 C72.46,44.403 49.42,27.195 49.42,27.195 L16.92,42.825 L14.11,63.45 L14.04,78.605" id="Fill-349" fill="#584939"></path>
            <path d="M83.3,23.204 C83.3,23.204 57.89,-6.4 20.81,24.723 C-16.28,55.846 14.33,103.029 14.33,103.029 C14.33,103.029 5.21,41.917 52.23,34.346 C99.25,26.775 83.3,23.204 83.3,23.204" id="Fill-501" fill="#584939"></path>
            <path d="M103.89,30.658 C103.89,30.658 146.05,45.679 115.87,102.566 C115.87,102.566 117.24,41.012 103.89,30.658" id="Fill-504" fill="#584939"></path>
            <path d="M73.89,46.356 C73.89,46.356 101.56,39.29 86.59,24.325 C72.46,10.189 34.22,23.204 34.22,23.204 C34.22,23.204 74.9,0.524 91.89,17.512 C114.75,40.38 73.89,46.356 73.89,46.356" id="Fill-502" fill="#90694B"></path>
        </g>
    </g>
</svg>