<?xml version="1.0" encoding="UTF-8" standalone="no"?>
<svg width="312px" height="151px" viewBox="0 0 312 151" version="1.1" xmlns="http://www.w3.org/2000/svg" xmlns:xlink="http://www.w3.org/1999/xlink">
    <!-- Generator: Sketch 39.1 (31720) - http://www.bohemiancoding.com/sketch -->
    <title>Group 3</title>
    <desc>Created with Sketch.</desc>
    <defs></defs>
    <g id="Page-1" stroke="none" stroke-width="1" fill="none" fill-rule="evenodd">
        <g id="Artboard-Copy-8" transform="translate(-24.000000, -56.000000)">
            <g id="Group" transform="translate(24.000000, 56.000000)">
                <g id="Bitmap">
                    <g id="Group-3" transform="translate(-26.000000, -46.000000)">
                        <path d="M30.9073989,155.434743 L9.86328125,155.434743 L9.86328125,166.346507 L30.9073989,166.346507 L30.9073989,187.390625 L41.8191636,187.390625 L41.8191636,166.346507 L62.8632812,166.346507 L62.8632812,155.434743 L41.8191636,155.434743 L41.8191636,134.390625 L30.9073989,134.390625 L30.9073989,155.434743 Z" id="Combined-Shape" fill="#FF2500" transform="translate(36.363281, 160.890625) rotate(27.000000) translate(-36.363281, -160.890625) "></path>
                        <path d="M103.5,87 C118.135546,87 130,75.1355459 130,60.5 C130,45.8644541 118.135546,34 103.5,34 C88.8644541,34 77,45.8644541 77,60.5 C77,75.1355459 88.8644541,87 103.5,87 Z M103.502584,77.5075829 C112.894185,77.5075829 120.507583,69.8941854 120.507583,60.5025837 C120.507583,51.110982 112.894185,43.4975845 103.502584,43.4975845 C94.110982,43.4975845 86.4975845,51.110982 86.4975845,60.5025837 C86.4975845,69.8941854 94.110982,77.5075829 103.502584,77.5075829 Z" id="Combined-Shape" fill="#16E6BF"></path>
                        <path d="M304.297379,132.981857 L360.907875,132.981857 L360.907875,189.592353 L304.297379,189.592353 L304.297379,132.981857 Z M314.406396,143.090874 L350.798858,143.090874 L350.798858,179.483336 L314.406396,179.483336 L314.406396,143.090874 Z" id="Combined-Shape" fill="#F0D200" transform="translate(332.602627, 161.287105) rotate(28.000000) translate(-332.602627, -161.287105) "></path>
                        <path d="M257.199917,16.9855705 L293.981167,76.3644767 L220.418667,76.3644767 L257.199917,16.9855705 Z M257.199917,37.3644767 L275.163472,66.3644767 L239.236362,66.3644767 L257.199917,37.3644767 Z" id="Combined-Shape" fill="#242424" transform="translate(257.199917, 46.675024) rotate(-42.000000) translate(-257.199917, -46.675024) "></path>
                    </g>
                </g>
            </g>
        </g>
    </g>
</svg>