<?xml version="1.0" encoding="UTF-8" standalone="no"?>
<svg width="322px" height="357px" viewBox="0 0 322 357" version="1.1" xmlns="http://www.w3.org/2000/svg" xmlns:xlink="http://www.w3.org/1999/xlink">
    <!-- Generator: Sketch 39.1 (31720) - http://www.bohemiancoding.com/sketch -->
    <title>alexandrov</title>
    <desc>Created with Sketch.</desc>
    <defs>
        <rect id="path-1" x="209" y="207" width="36" height="50" rx="18"></rect>
        <mask id="mask-2" maskContentUnits="userSpaceOnUse" maskUnits="objectBoundingBox" x="0" y="0" width="36" height="50" fill="white">
            <use xlink:href="#path-1"></use>
        </mask>
    </defs>
    <g id="Page-1" stroke="none" stroke-width="1" fill="none" fill-rule="evenodd">
        <g id="Artboard-Copy" transform="translate(-105.000000, -49.000000)">
            <g id="alexandrov" transform="translate(105.000000, 49.000000)">
                <use id="Rectangle-6" stroke="#FFE9CF" mask="url(#mask-2)" stroke-width="10" fill="#FFE9CF" xlink:href="#path-1"></use>
                <rect id="Rectangle-6-Copy" fill="#000000" x="216" y="228" width="22" height="22" rx="11"></rect>
                <rect id="Rectangle-6-Copy-3" fill="#FFE9CF" x="56" y="207" width="36" height="50" rx="18"></rect>
                <rect id="Rectangle-6-Copy-2" fill="#000000" x="63" y="228" width="22" height="22" rx="11"></rect>
                <rect id="Rectangle-Copy" fill="#5D410A" x="80" y="106" width="142" height="202" rx="71"></rect>
                <rect id="Rectangle-Copy-4" fill="#FFEAD0" x="86" y="106" width="130" height="194" rx="65"></rect>
                <rect id="Rectangle-Copy-5" fill="#5D410A" x="86" y="106" width="130" height="202" rx="65"></rect>
                <rect id="Rectangle-Copy-6" fill="#FFEAD0" x="86" y="60" width="130" height="194" rx="38"></rect>
                <circle id="Oval-7" fill="#2E1E0D" cx="174" cy="211" r="11"></circle>
                <rect id="Rectangle" fill="#FFE9CF" x="158" y="192" width="36" height="18"></rect>
                <rect id="Rectangle-Copy-2" fill="#FFE9CF" x="101" y="192" width="36" height="18"></rect>
                <circle id="Oval-7-Copy" fill="#2E1E0D" cx="128" cy="211" r="11"></circle>
                <rect id="Rectangle-Copy-3" fill="#FFE9CF" x="114" y="192" width="36" height="18"></rect>
                <circle id="Oval-8" fill="#5D400A" cx="129" cy="93" r="46"></circle>
                <circle id="Oval-8-Copy" fill="#5D400A" cx="228" cy="93" r="64"></circle>
                <circle id="Oval-8-Copy-5" fill="#5D400A" cx="253" cy="147" r="53"></circle>
                <circle id="Oval-8-Copy-3" fill="#5D400A" cx="63" cy="150" r="33"></circle>
                <rect id="Rectangle-2" fill="#5D410A" x="132" y="86" width="66" height="46"></rect>
                <rect id="Rectangle-2-Copy" fill="#5D410A" x="47" y="104" width="66" height="46"></rect>
                <circle id="Oval-8-Copy-2" fill="#FFE9CF" cx="177.5" cy="160.5" r="37.5"></circle>
                <circle id="Oval-8-Copy-4" fill="#FFE9CF" cx="108" cy="155" r="20"></circle>
                <path d="M123.226981,254.273659 C125.863047,245.83825 135.160152,239 143.999983,239 L160.000017,239 C168.836564,239 178.139115,245.845169 180.773019,254.273659 L181.226981,255.726341 C183.863047,264.16175 178.835317,271 169.992562,271 L134.007438,271 C125.166774,271 120.139115,264.154831 122.773019,255.726341 L123.226981,254.273659 Z" id="Rectangle-7" fill="#5D410A"></path>
                <rect id="Rectangle-8" fill="#765129" transform="translate(172.075331, 195.430871) rotate(-12.000000) translate(-172.075331, -195.430871) " x="158.575331" y="191.430871" width="27" height="8" rx="4"></rect>
                <rect id="Rectangle-8-Copy" fill="#765129" transform="translate(129.075331, 195.430871) scale(-1, 1) rotate(-12.000000) translate(-129.075331, -195.430871) " x="115.575331" y="191.430871" width="27" height="8" rx="4"></rect>
                <rect id="Rectangle-9" fill="#FFFFFF" x="0" y="29" width="80" height="172"></rect>
                <rect id="Rectangle-9-Copy" fill="#FFFFFF" x="222" y="29" width="100" height="172"></rect>
                <rect id="Rectangle-9-Copy-2" fill="#FFFFFF" x="74" y="0" width="164" height="106"></rect>
                <rect id="Rectangle-10" fill="#5D410A" x="80" y="70" width="21" height="59" rx="10.5"></rect>
                <rect id="Rectangle-10-Copy-6" fill="#5D410A" x="201" y="70" width="21" height="59" rx="10.5"></rect>
                <path d="M80,240 L101,255 L101,293.503307 C101,299.30047 96.3002649,304 90.5,304 L90.5,304 C84.7010101,304 80,299.293927 80,293.503367 L80,240 Z" id="Rectangle-10-Copy-13" fill="#5D410A"></path>
                <path d="M201,248 L222,238 L222,293.505637 C222,299.301514 217.300265,304 211.5,304 L211.5,304 C205.70101,304 201,299.297789 201,293.499693 L201,248 Z" id="Rectangle-10-Copy-12" fill="#5D410A"></path>
                <rect id="Rectangle-10-Copy" fill="#5D410A" x="100" y="57" width="21" height="75" rx="10.5"></rect>
                <rect id="Rectangle-10-Copy-5" fill="#5D410A" x="182" y="57" width="21" height="75" rx="10.5"></rect>
                <rect id="Rectangle-10-Copy-11" fill="#5D410A" x="100" y="257" width="21" height="75" rx="10.5"></rect>
                <rect id="Rectangle-10-Copy-10" fill="#5D410A" x="182" y="257" width="21" height="75" rx="10.5"></rect>
                <rect id="Rectangle-10-Copy-2" fill="#5D410A" x="120" y="47" width="21" height="85" rx="10.5"></rect>
                <rect id="Rectangle-10-Copy-4" fill="#5D410A" x="162" y="47" width="21" height="85" rx="10.5"></rect>
                <rect id="Rectangle-10-Copy-9" fill="#5D410A" x="120" y="263" width="21" height="85" rx="10.5"></rect>
                <rect id="Rectangle-10-Copy-8" fill="#5D410A" x="162" y="263" width="21" height="85" rx="10.5"></rect>
                <rect id="Rectangle-10-Copy-3" fill="#5D410A" x="141" y="42" width="21" height="85" rx="10.5"></rect>
                <rect id="Rectangle-10-Copy-7" fill="#5D410A" x="141" y="272" width="21" height="85" rx="10.5"></rect>
            </g>
        </g>
    </g>
</svg>