<?xml version="1.0" encoding="UTF-8" standalone="no"?>
<svg width="181px" height="213px" viewBox="0 0 181 213" version="1.1" xmlns="http://www.w3.org/2000/svg" xmlns:xlink="http://www.w3.org/1999/xlink">
    <!-- Generator: Sketch 39.1 (31720) - http://www.bohemiancoding.com/sketch -->
    <title>Group 2</title>
    <desc>Created with Sketch.</desc>
    <defs></defs>
    <g id="Page-1" stroke="none" stroke-width="1" fill="none" fill-rule="evenodd">
        <g id="Group-2">
            <path d="M15.383,137.471 C15.383,166.108 38.598,189.322 67.234,189.322 C95.871,189.322 119.085,166.108 119.085,137.471 C119.085,108.835 95.871,85.62 67.234,85.62 C38.598,85.62 15.383,108.835 15.383,137.471" id="Fill-54" fill="#564641"></path>
            <path d="M157.28,83.109 C157.28,118.455 128.626,147.109 93.28,147.109 C57.934,147.109 29.28,118.455 29.28,83.109 C29.28,47.762 57.934,19.109 93.28,19.109 C128.626,19.109 157.28,47.762 157.28,83.109" id="Fill-55" fill="#564641"></path>
            <path d="M63.707,135.106 C63.707,163.743 86.922,186.958 115.558,186.958 C144.195,186.958 167.41,163.743 167.41,135.106 C167.41,106.47 144.195,83.255 115.558,83.255 C86.922,83.255 63.707,106.47 63.707,135.106" id="Fill-56" fill="#564641"></path>
            <path d="M93.092,211.995 C126.357,209.07 140.226,174.726 143.314,165.69 C143.446,164.195 143.525,162.685 143.525,161.156 L143.525,114.922 C143.525,86.803 120.73,64.008 92.611,64.008 C64.492,64.008 41.697,86.803 41.697,114.922 L41.697,161.156 C41.697,162.054 41.721,162.947 41.767,163.834 C42.81,167.343 55.898,208.841 92.611,212.07 C92.858,212.07 93.101,212.055 93.347,212.052 L93.092,211.995" id="Fill-57" fill="#F0D3C3"></path>
            <path d="M117.055,27.066 C117.055,41.871 105.052,53.874 90.247,53.874 C75.441,53.874 63.439,41.871 63.439,27.066 C63.439,12.26 75.441,0.258 90.247,0.258 C105.052,0.258 117.055,12.26 117.055,27.066" id="Fill-68" fill="#564641"></path>
            <path d="M54.96,142.963 C54.96,138.06 60.037,134.085 66.301,134.085 C72.564,134.085 77.642,138.06 77.642,142.963" id="Fill-138" fill="#503D3A"></path>
            <path d="M104.505,142.963 C104.505,138.06 109.611,134.085 115.909,134.085 C122.208,134.085 127.314,138.06 127.314,142.963" id="Fill-139" fill="#503D3A"></path>
            <path d="M56.79,55.445 C56.79,60.968 61.267,65.445 66.79,65.445 C72.313,65.445 76.79,60.968 76.79,55.445 C76.79,49.922 72.313,45.445 66.79,45.445 C61.267,45.445 56.79,49.922 56.79,55.445" id="Fill-140" fill="#564641"></path>
            <path d="M69.124,86.643 C69.124,90.554 65.953,93.724 62.042,93.724 C58.13,93.724 54.96,90.554 54.96,86.643 C54.96,82.731 58.13,79.561 62.042,79.561 C65.953,79.561 69.124,82.731 69.124,86.643" id="Fill-141" fill="#564641"></path>
            <path d="M58.377,93.724 C58.377,96.355 56.244,98.488 53.613,98.488 C50.982,98.488 48.85,96.355 48.85,93.724 C48.85,91.094 50.982,88.961 53.613,88.961 C56.244,88.961 58.377,91.094 58.377,93.724" id="Fill-142" fill="#564641"></path>
            <path d="M76.107,84.478 C76.107,88.362 72.958,91.51 69.074,91.51 C65.19,91.51 62.042,88.362 62.042,84.478 C62.042,80.593 65.19,77.445 69.074,77.445 C72.958,77.445 76.107,80.593 76.107,84.478" id="Fill-143" fill="#564641"></path>
            <path d="M122.485,86.561 C122.485,89.655 119.977,92.163 116.882,92.163 C113.788,92.163 111.28,89.655 111.28,86.561 C111.28,83.466 113.788,80.958 116.882,80.958 C119.977,80.958 122.485,83.466 122.485,86.561" id="Fill-144" fill="#564641"></path>
            <path d="M68.764,78.261 C68.764,82.073 65.674,85.163 61.862,85.163 C58.05,85.163 54.96,82.073 54.96,78.261 C54.96,74.449 58.05,71.359 61.862,71.359 C65.674,71.359 68.764,74.449 68.764,78.261" id="Fill-145" fill="#564641"></path>
            <path d="M60.33,86.086 C60.33,89.69 57.409,92.611 53.805,92.611 C50.201,92.611 47.28,89.69 47.28,86.086 C47.28,82.482 50.201,79.561 53.805,79.561 C57.409,79.561 60.33,82.482 60.33,86.086" id="Fill-146" fill="#564641"></path>
            <path d="M96.602,30.374 C96.602,32.621 94.781,34.442 92.535,34.442 C90.288,34.442 88.467,32.621 88.467,30.374 C88.467,28.128 90.288,26.306 92.535,26.306 C94.781,26.306 96.602,28.128 96.602,30.374" id="Fill-147" fill="#564641"></path>
            <path d="M121.099,74.352 C121.099,76.511 119.348,78.261 117.189,78.261 C115.03,78.261 113.28,76.511 113.28,74.352 C113.28,72.192 115.03,70.442 117.189,70.442 C119.348,70.442 121.099,72.192 121.099,74.352" id="Fill-148" fill="#564641"></path>
            <path d="M123.633,78.453 C123.633,82.912 120.018,86.528 115.558,86.528 C111.099,86.528 107.484,82.912 107.484,78.453 C107.484,73.993 111.099,70.378 115.558,70.378 C120.018,70.378 123.633,73.993 123.633,78.453" id="Fill-149" fill="#564641"></path>
            <path d="M117.432,88.533 C117.432,93.001 121.054,96.624 125.522,96.624 C129.991,96.624 133.613,93.001 133.613,88.533 C133.613,84.064 129.991,80.442 125.522,80.442 C121.054,80.442 117.432,84.064 117.432,88.533" id="Fill-150" fill="#564641"></path>
            <path d="M127.944,67.119 C127.944,72.308 123.738,76.514 118.55,76.514 C113.361,76.514 109.155,72.308 109.155,67.119 C109.155,61.931 113.361,57.725 118.55,57.725 C123.738,57.725 127.944,61.931 127.944,67.119" id="Fill-151" fill="#564641"></path>
            <path d="M136.933,73.904 C136.933,79.092 132.727,83.298 127.538,83.298 C122.35,83.298 118.144,79.092 118.144,73.904 C118.144,68.715 122.35,64.509 127.538,64.509 C132.727,64.509 136.933,68.715 136.933,73.904" id="Fill-152" fill="#564641"></path>
            <path d="M146.444,102.027 C146.444,107.227 142.229,111.442 137.029,111.442 C131.829,111.442 127.613,107.227 127.613,102.027 C127.613,96.827 131.829,92.611 137.029,92.611 C142.229,92.611 146.444,96.827 146.444,102.027" id="Fill-153" fill="#564641"></path>
            <path d="M146.117,89.024 C146.117,94.251 141.88,98.488 136.654,98.488 C131.427,98.488 127.19,94.251 127.19,89.024 C127.19,83.798 131.427,79.561 136.654,79.561 C141.88,79.561 146.117,83.798 146.117,89.024" id="Fill-154" fill="#564641"></path>
            <path d="M161.302,56.907 C161.302,62.133 157.065,66.37 151.838,66.37 C146.611,66.37 142.374,62.133 142.374,56.907 C142.374,51.68 146.611,47.443 151.838,47.443 C157.065,47.443 161.302,51.68 161.302,56.907" id="Fill-155" fill="#564641"></path>
            <path d="M171.848,73.019 C171.848,80.498 165.786,86.561 158.307,86.561 C150.828,86.561 144.766,80.498 144.766,73.019 C144.766,65.541 150.828,59.478 158.307,59.478 C165.786,59.478 171.848,65.541 171.848,73.019" id="Fill-156" fill="#564641"></path>
            <path d="M177.412,94.537 C177.412,102.016 171.35,108.079 163.871,108.079 C156.392,108.079 150.33,102.016 150.33,94.537 C150.33,87.059 156.392,80.996 163.871,80.996 C171.35,80.996 177.412,87.059 177.412,94.537" id="Fill-157" fill="#564641"></path>
            <path d="M180.179,131.087 C180.179,138.566 174.117,144.628 166.638,144.628 C159.159,144.628 153.097,138.566 153.097,131.087 C153.097,123.608 159.159,117.546 166.638,117.546 C174.117,117.546 180.179,123.608 180.179,131.087" id="Fill-158" fill="#564641"></path>
            <path d="M172.227,92.011 C172.227,99.489 166.164,105.552 158.685,105.552 C151.207,105.552 145.144,99.489 145.144,92.011 C145.144,84.532 151.207,78.469 158.685,78.469 C166.164,78.469 172.227,84.532 172.227,92.011" id="Fill-159" fill="#564641"></path>
            <path d="M54.96,100.463 C54.96,102.584 53.241,104.303 51.12,104.303 C48.999,104.303 47.28,102.584 47.28,100.463 C47.28,98.343 48.999,96.624 51.12,96.624 C53.241,96.624 54.96,98.343 54.96,100.463" id="Fill-160" fill="#564641"></path>
            <path d="M44.85,103.335 C44.85,108.146 40.95,112.046 36.139,112.046 C31.328,112.046 27.427,108.146 27.427,103.335 C27.427,98.524 31.328,94.624 36.139,94.624 C40.95,94.624 44.85,98.524 44.85,103.335" id="Fill-161" fill="#564641"></path>
            <path d="M57.002,93.595 C57.002,98.252 53.227,102.027 48.57,102.027 C43.914,102.027 40.139,98.252 40.139,93.595 C40.139,88.938 43.914,85.163 48.57,85.163 C53.227,85.163 57.002,88.938 57.002,93.595" id="Fill-162" fill="#564641"></path>
            <path d="M76.107,84.478 C76.107,84.478 76.32,71.907 88.467,75.008 C100.613,78.109 85.28,65.306 85.28,65.306 L69.124,69.374 L76.107,84.478" id="Fill-163" fill="#564641"></path>
            <path d="M109.574,84.478 C109.574,84.478 109.361,71.907 97.215,75.008 C85.068,78.109 100.402,65.306 100.402,65.306 L116.558,69.374 L109.574,84.478" id="Fill-164" fill="#564641"></path>
            <path d="M46.839,119.148 C46.839,123.404 43.389,126.854 39.133,126.854 C34.878,126.854 31.427,123.404 31.427,119.148 C31.427,114.892 34.878,111.442 39.133,111.442 C43.389,111.442 46.839,114.892 46.839,119.148" id="Fill-165" fill="#564641"></path>
            <path d="M136.654,112.314 C136.654,116.169 139.779,119.294 143.633,119.294 C147.488,119.294 150.613,116.169 150.613,112.314 C150.613,108.46 147.488,105.335 143.633,105.335 C139.779,105.335 136.654,108.46 136.654,112.314" id="Fill-166" fill="#564641"></path>
            <path d="M30.9,94.537 C30.9,96.706 29.142,98.464 26.974,98.464 C24.805,98.464 23.047,96.706 23.047,94.537 C23.047,92.369 24.805,90.611 26.974,90.611 C29.142,90.611 30.9,92.369 30.9,94.537" id="Fill-167" fill="#564641"></path>
            <path d="M36.943,84.374 C36.943,89.839 32.513,94.269 27.047,94.269 C21.582,94.269 17.151,89.839 17.151,84.374 C17.151,78.908 21.582,74.478 27.047,74.478 C32.513,74.478 36.943,78.908 36.943,84.374" id="Fill-168" fill="#564641"></path>
            <path d="M34.508,94.537 C34.508,100.003 30.078,104.433 24.612,104.433 C19.147,104.433 14.716,100.003 14.716,94.537 C14.716,89.072 19.147,84.641 24.612,84.641 C30.078,84.641 34.508,89.072 34.508,94.537" id="Fill-169" fill="#564641"></path>
            <path d="M46.839,76.557 C46.839,83.488 41.221,89.107 34.29,89.107 C27.359,89.107 21.74,83.488 21.74,76.557 C21.74,69.626 27.359,64.008 34.29,64.008 C41.221,64.008 46.839,69.626 46.839,76.557" id="Fill-170" fill="#564641"></path>
            <path d="M31.173,82.491 C31.173,89.422 25.554,95.041 18.623,95.041 C11.692,95.041 6.073,89.422 6.073,82.491 C6.073,75.56 11.692,69.942 18.623,69.942 C25.554,69.942 31.173,75.56 31.173,82.491" id="Fill-171" fill="#564641"></path>
            <path d="M26.023,100.463 C26.023,107.394 20.405,113.013 13.474,113.013 C6.543,113.013 0.924,107.394 0.924,100.463 C0.924,93.533 6.543,87.914 13.474,87.914 C20.405,87.914 26.023,93.533 26.023,100.463" id="Fill-172" fill="#564641"></path>
            <path d="M33.199,103.335 C33.199,110.266 27.58,115.884 20.649,115.884 C13.718,115.884 8.1,110.266 8.1,103.335 C8.1,96.404 13.718,90.785 20.649,90.785 C27.58,90.785 33.199,96.404 33.199,103.335" id="Fill-173" fill="#564641"></path>
            <path d="M49.899,55.359 C49.899,60.824 45.469,65.255 40.003,65.255 C34.538,65.255 30.107,60.824 30.107,55.359 C30.107,49.893 34.538,45.463 40.003,45.463 C45.469,45.463 49.899,49.893 49.899,55.359" id="Fill-174" fill="#564641"></path>
            <path d="M39.839,58.352 C39.839,63.817 35.409,68.247 29.943,68.247 C24.478,68.247 20.047,63.817 20.047,58.352 C20.047,52.886 24.478,48.456 29.943,48.456 C35.409,48.456 39.839,52.886 39.839,58.352" id="Fill-175" fill="#564641"></path>
            <path d="M47.768,51.008 C47.768,56.473 43.337,60.904 37.872,60.904 C32.407,60.904 27.976,56.473 27.976,51.008 C27.976,45.542 32.407,41.112 37.872,41.112 C43.337,41.112 47.768,45.542 47.768,51.008" id="Fill-176" fill="#564641"></path>
            <path d="M32.203,65.008 C32.203,70.473 27.772,74.904 22.307,74.904 C16.842,74.904 12.411,70.473 12.411,65.008 C12.411,59.542 16.842,55.112 22.307,55.112 C27.772,55.112 32.203,59.542 32.203,65.008" id="Fill-177" fill="#564641"></path>
            <path d="M77.323,68.247 C77.323,73.713 72.892,78.143 67.427,78.143 C61.962,78.143 57.531,73.713 57.531,68.247 C57.531,62.782 61.962,58.352 67.427,58.352 C72.892,58.352 77.323,62.782 77.323,68.247" id="Fill-178" fill="#564641"></path>
            <path d="M93.268,61.337 C93.268,66.803 88.837,71.233 83.372,71.233 C77.907,71.233 73.476,66.803 73.476,61.337 C73.476,55.872 77.907,51.441 83.372,51.441 C88.837,51.441 93.268,55.872 93.268,61.337" id="Fill-179" fill="#564641"></path>
            <path d="M106.498,61.984 C106.498,67.45 102.068,71.88 96.602,71.88 C91.137,71.88 86.706,67.45 86.706,61.984 C86.706,56.519 91.137,52.088 96.602,52.088 C102.068,52.088 106.498,56.519 106.498,61.984" id="Fill-180" fill="#564641"></path>
            <path d="M28.933,114.046 C28.933,119.511 24.503,123.942 19.038,123.942 C13.572,123.942 9.142,119.511 9.142,114.046 C9.142,108.58 13.572,104.15 19.038,104.15 C24.503,104.15 28.933,108.58 28.933,114.046" id="Fill-181" fill="#564641"></path>
            <path d="M22.623,118.285 C22.623,123.751 18.192,128.181 12.727,128.181 C7.262,128.181 2.831,123.751 2.831,118.285 C2.831,112.82 7.262,108.39 12.727,108.39 C18.192,108.39 22.623,112.82 22.623,118.285" id="Fill-182" fill="#564641"></path>
            <path d="M23.397,104.711 C23.397,108.762 20.113,112.046 16.062,112.046 C12.011,112.046 8.727,108.762 8.727,104.711 C8.727,100.66 12.011,97.376 16.062,97.376 C20.113,97.376 23.397,100.66 23.397,104.711" id="Fill-183" fill="#564641"></path>
            <path d="M33.163,97.376 C33.163,102.099 29.335,105.927 24.612,105.927 C19.89,105.927 16.062,102.099 16.062,97.376 C16.062,92.654 19.89,88.826 24.612,88.826 C29.335,88.826 33.163,92.654 33.163,97.376" id="Fill-184" fill="#564641"></path>
            <path d="M25.702,129.386 C25.702,134.108 21.874,137.936 17.151,137.936 C12.429,137.936 8.601,134.108 8.601,129.386 C8.601,124.663 12.429,120.835 17.151,120.835 C21.874,120.835 25.702,124.663 25.702,129.386" id="Fill-185" fill="#564641"></path>
            <path d="M130.601,53.592 C130.601,48.2 134.973,43.829 140.365,43.829 C145.758,43.829 150.129,48.2 150.129,53.592 C150.129,58.985 145.758,63.356 140.365,63.356 C134.973,63.356 130.601,58.985 130.601,53.592" id="Fill-186" fill="#564641"></path>
            <path d="M160.598,93.856 C160.598,98.541 156.801,102.338 152.116,102.338 C147.431,102.338 143.633,98.541 143.633,93.856 C143.633,89.171 147.431,85.374 152.116,85.374 C156.801,85.374 160.598,89.171 160.598,93.856" id="Fill-187" fill="#564641"></path>
            <path d="M155.513,81.491 C155.513,85.652 152.14,89.024 147.98,89.024 C143.819,89.024 140.447,85.652 140.447,81.491 C140.447,77.331 143.819,73.958 147.98,73.958 C152.14,73.958 155.513,77.331 155.513,81.491" id="Fill-188" fill="#564641"></path>
            <path d="M163.373,84.478 C163.373,88.638 160,92.011 155.84,92.011 C151.68,92.011 148.307,88.638 148.307,84.478 C148.307,80.317 151.68,76.945 155.84,76.945 C160,76.945 163.373,80.317 163.373,84.478" id="Fill-189" fill="#564641"></path>
            <path d="M142.299,77.528 C139.086,77.528 136.481,74.923 136.481,71.71 C136.481,68.497 139.086,65.892 142.299,65.892 C145.512,65.892 148.117,68.497 148.117,71.71 C148.117,74.923 145.512,77.528 142.299,77.528" id="Fill-190" fill="#564641"></path>
            <path d="M10.029,113.483 C8.196,115.315 8.196,118.285 10.029,120.118 C11.861,121.95 14.831,121.95 16.663,120.118 C18.496,118.285 18.496,115.315 16.663,113.483 C14.831,111.651 11.861,111.651 10.029,113.483" id="Fill-191" fill="#564641"></path>
            <path d="M15.136,131.062 C15.136,127.523 12.267,124.653 8.727,124.653 C5.187,124.653 2.318,127.523 2.318,131.062 C2.318,134.602 5.187,137.471 8.727,137.471 C12.267,137.471 15.136,134.602 15.136,131.062" id="Fill-192" fill="#564641"></path>
            <path d="M16.52,137.053 C16.52,133.514 13.65,130.644 10.111,130.644 C6.571,130.644 3.702,133.514 3.702,137.053 C3.702,140.593 6.571,143.462 10.111,143.462 C13.65,143.462 16.52,140.593 16.52,137.053" id="Fill-193" fill="#564641"></path>
            <path d="M28.149,165.516 C28.149,161.976 25.28,159.107 21.74,159.107 C18.2,159.107 15.331,161.976 15.331,165.516 C15.331,169.055 18.2,171.925 21.74,171.925 C25.28,171.925 28.149,169.055 28.149,165.516" id="Fill-194" fill="#564641"></path>
            <path d="M21.041,46.69 C21.041,42.901 24.113,39.829 27.903,39.829 C31.692,39.829 34.764,42.901 34.764,46.69 C34.764,50.479 31.692,53.551 27.903,53.551 C24.113,53.551 21.041,50.479 21.041,46.69" id="Fill-195" fill="#564641"></path>
            <path d="M170.438,102.9 C170.438,106.994 167.119,110.313 163.026,110.313 C158.932,110.313 155.613,106.994 155.613,102.9 C155.613,98.806 158.932,95.488 163.026,95.488 C167.119,95.488 170.438,98.806 170.438,102.9" id="Fill-196" fill="#564641"></path>
            <path d="M147.272,55.445 C147.272,59.539 143.953,62.857 139.859,62.857 C135.766,62.857 132.447,59.539 132.447,55.445 C132.447,51.351 135.766,48.032 139.859,48.032 C143.953,48.032 147.272,51.351 147.272,55.445" id="Fill-197" fill="#564641"></path>
            <path d="M149.711,43.829 C149.711,47.922 146.392,51.241 142.299,51.241 C138.205,51.241 134.886,47.922 134.886,43.829 C134.886,39.735 138.205,36.416 142.299,36.416 C146.392,36.416 149.711,39.735 149.711,43.829" id="Fill-198" fill="#564641"></path>
            <path d="M139.859,38.336 C139.859,42.429 136.541,45.748 132.447,45.748 C128.353,45.748 125.035,42.429 125.035,38.336 C125.035,34.242 128.353,30.923 132.447,30.923 C136.541,30.923 139.859,34.242 139.859,38.336" id="Fill-199" fill="#564641"></path>
            <path d="M168.287,81.211 C168.287,86.099 163.988,90.062 158.685,90.062 C153.383,90.062 149.084,86.099 149.084,81.211 C149.084,76.323 153.383,72.36 158.685,72.36 C163.988,72.36 168.287,76.323 168.287,81.211" id="Fill-200" fill="#564641"></path>
            <path d="M176.24,105.927 C176.24,110.815 171.941,114.777 166.638,114.777 C161.335,114.777 157.036,110.815 157.036,105.927 C157.036,101.039 161.335,97.076 166.638,97.076 C171.941,97.076 176.24,101.039 176.24,105.927" id="Fill-201" fill="#564641"></path>
            <path d="M32.272,39.829 C32.272,34.121 36.898,29.495 42.606,29.495 C48.313,29.495 52.94,34.121 52.94,39.829 C52.94,45.536 48.313,50.163 42.606,50.163 C36.898,50.163 32.272,45.536 32.272,39.829" id="Fill-202" fill="#564641"></path>
            <path d="M122.332,32.337 C122.332,29.024 125.018,26.338 128.331,26.338 C131.644,26.338 134.329,29.024 134.329,32.337 C134.329,35.65 131.644,38.336 128.331,38.336 C125.018,38.336 122.332,35.65 122.332,32.337" id="Fill-203" fill="#564641"></path>
            <path d="M63.884,26.306 C63.884,23.611 66.069,21.426 68.764,21.426 C71.459,21.426 73.644,23.611 73.644,26.306 C73.644,29.002 71.459,31.187 68.764,31.187 C66.069,31.187 63.884,29.002 63.884,26.306" id="Fill-204" fill="#564641"></path>
            <path d="M71.227,22.754 C71.227,20.059 73.412,17.874 76.107,17.874 C78.802,17.874 80.987,20.059 80.987,22.754 C80.987,25.449 78.802,27.634 76.107,27.634 C73.412,27.634 71.227,25.449 71.227,22.754" id="Fill-205" fill="#564641"></path>
            <path d="M53.81,48.913 C53.81,51.42 51.777,53.453 49.27,53.453 C46.763,53.453 44.731,51.42 44.731,48.913 C44.731,46.406 46.763,44.374 49.27,44.374 C51.777,44.374 53.81,46.406 53.81,48.913" id="Fill-206" fill="#564641"></path>
            <path d="M45.509,31.378 C45.509,27.243 49.101,23.891 53.533,23.891 C57.965,23.891 61.557,27.243 61.557,31.378 C61.557,35.513 57.965,38.865 53.533,38.865 C49.101,38.865 45.509,35.513 45.509,31.378" id="Fill-207" fill="#564641"></path>
            <path d="M105.394,22.754 C105.394,20.056 107.582,17.868 110.28,17.868 C112.978,17.868 115.165,20.056 115.165,22.754 C115.165,25.452 112.978,27.64 110.28,27.64 C107.582,27.64 105.394,25.452 105.394,22.754" id="Fill-208" fill="#564641"></path>
            <path d="M111.868,25.012 C112.583,22.41 115.272,20.88 117.873,21.595 C120.475,22.31 122.005,24.999 121.29,27.601 C120.575,30.203 117.886,31.732 115.284,31.017 C112.683,30.302 111.153,27.614 111.868,25.012" id="Fill-209" fill="#564641"></path>
            <path d="M58.166,27.066 C58.166,24.685 60.097,22.754 62.478,22.754 C64.86,22.754 66.79,24.685 66.79,27.066 C66.79,29.447 64.86,31.378 62.478,31.378 C60.097,31.378 58.166,29.447 58.166,27.066" id="Fill-210" fill="#564641"></path>
            <path d="M92.535,23.426 C92.535,27.295 89.399,30.431 85.53,30.431 C81.662,30.431 78.526,27.295 78.526,23.426 C78.526,19.558 81.662,16.422 85.53,16.422 C89.399,16.422 92.535,19.558 92.535,23.426" id="Fill-211" fill="#564641"></path>
            <path d="M105.543,23.426 C105.543,27.295 102.407,30.431 98.539,30.431 C94.671,30.431 91.535,27.295 91.535,23.426 C91.535,19.558 94.671,16.422 98.539,16.422 C102.407,16.422 105.543,19.558 105.543,23.426" id="Fill-212" fill="#564641"></path>
            <path d="M128.331,27.64 C128.331,25.046 126.228,22.942 123.633,22.942 C121.039,22.942 118.936,25.046 118.936,27.64 C118.936,30.234 121.039,32.337 123.633,32.337 C126.228,32.337 128.331,30.234 128.331,27.64" id="Fill-213" fill="#564641"></path>
            <path d="M173.229,114.046 C173.229,117.557 170.382,120.404 166.871,120.404 C163.359,120.404 160.513,117.557 160.513,114.046 C160.513,110.534 163.359,107.688 166.871,107.688 C170.382,107.688 173.229,110.534 173.229,114.046" id="Fill-214" fill="#564641"></path>
            <path d="M156.332,73.478 C156.332,76.989 153.485,79.836 149.974,79.836 C146.462,79.836 143.616,76.989 143.616,73.478 C143.616,69.966 146.462,67.119 149.974,67.119 C153.485,67.119 156.332,69.966 156.332,73.478" id="Fill-215" fill="#564641"></path>
            <path d="M139.825,121.083 C139.825,124.062 142.24,126.477 145.219,126.477 C148.198,126.477 150.613,124.062 150.613,121.083 C150.613,118.104 148.198,115.689 145.219,115.689 C142.24,115.689 139.825,118.104 139.825,121.083" id="Fill-216" fill="#564641"></path>
            <path d="M141.05,128.445 C141.05,131.424 143.465,133.839 146.444,133.839 C149.423,133.839 151.838,131.424 151.838,128.445 C151.838,125.466 149.423,123.051 146.444,123.051 C143.465,123.051 141.05,125.466 141.05,128.445" id="Fill-217" fill="#564641"></path>
            <path d="M9.191,146.065 C9.191,149.68 12.121,152.61 15.735,152.61 C19.35,152.61 22.28,149.68 22.28,146.065 C22.28,142.451 19.35,139.521 15.735,139.521 C12.121,139.521 9.191,142.451 9.191,146.065" id="Fill-218" fill="#564641"></path>
            <path d="M20.649,162.569 C20.649,166.184 23.579,169.114 27.194,169.114 C30.808,169.114 33.738,166.184 33.738,162.569 C33.738,158.955 30.808,156.025 27.194,156.025 C23.579,156.025 20.649,158.955 20.649,162.569" id="Fill-219" fill="#564641"></path>
            <path d="M12.958,159.834 C12.958,163.449 15.888,166.379 19.502,166.379 C23.117,166.379 26.047,163.449 26.047,159.834 C26.047,156.22 23.117,153.29 19.502,153.29 C15.888,153.29 12.958,156.22 12.958,159.834" id="Fill-220" fill="#564641"></path>
            <path d="M174.418,117.337 C176.616,119.536 176.616,123.099 174.418,125.297 C172.22,127.496 168.656,127.496 166.458,125.297 C164.26,123.099 164.26,119.536 166.458,117.337 C168.656,115.139 172.22,115.139 174.418,117.337" id="Fill-221" fill="#564641"></path>
            <path d="M8.274,151.618 C7.727,154.419 9.554,157.134 12.355,157.681 C15.155,158.229 17.87,156.402 18.418,153.601 C18.965,150.8 17.138,148.086 14.337,147.538 C11.536,146.991 8.822,148.817 8.274,151.618" id="Fill-222" fill="#564641"></path>
            <path d="M4.943,145.745 C4.943,148.599 7.257,150.912 10.111,150.912 C12.965,150.912 15.278,148.599 15.278,145.745 C15.278,142.891 12.965,140.577 10.111,140.577 C7.257,140.577 4.943,142.891 4.943,145.745" id="Fill-223" fill="#564641"></path>
            <path d="M172.897,131.409 C172.897,134.784 170.161,137.521 166.786,137.521 C163.41,137.521 160.674,134.784 160.674,131.409 C160.674,128.034 163.41,125.297 166.786,125.297 C170.161,125.297 172.897,128.034 172.897,131.409" id="Fill-224" fill="#564641"></path>
            <path d="M170.229,155.231 C170.229,158.742 167.382,161.589 163.871,161.589 C160.359,161.589 157.513,158.742 157.513,155.231 C157.513,151.719 160.359,148.873 163.871,148.873 C167.382,148.873 170.229,151.719 170.229,155.231" id="Fill-225" fill="#564641"></path>
            <path d="M163.871,158.424 C163.871,161.936 161.024,164.782 157.513,164.782 C154.001,164.782 151.154,161.936 151.154,158.424 C151.154,154.913 154.001,152.066 157.513,152.066 C161.024,152.066 163.871,154.913 163.871,158.424" id="Fill-226" fill="#564641"></path>
            <path d="M153.177,170.381 C150.49,172.642 146.479,172.296 144.219,169.609 C141.958,166.922 142.303,162.911 144.99,160.651 C147.677,158.39 151.688,158.735 153.949,161.422 C156.21,164.11 155.864,168.12 153.177,170.381" id="Fill-227" fill="#564641"></path>
            <path d="M174.397,143.459 C174.397,147.634 171.013,151.018 166.838,151.018 C162.664,151.018 159.28,147.634 159.28,143.459 C159.28,139.285 162.664,135.901 166.838,135.901 C171.013,135.901 174.397,139.285 174.397,143.459" id="Fill-228" fill="#564641"></path>
            <path d="M176.95,114.777 C176.95,118.952 173.566,122.336 169.391,122.336 C165.217,122.336 161.833,118.952 161.833,114.777 C161.833,110.603 165.217,107.219 169.391,107.219 C173.566,107.219 176.95,110.603 176.95,114.777" id="Fill-229" fill="#564641"></path>
            <path d="M22.735,155.1 C22.735,158.459 25.458,161.182 28.818,161.182 C32.177,161.182 34.9,158.459 34.9,155.1 C34.9,151.741 32.177,149.018 28.818,149.018 C25.458,149.018 22.735,151.741 22.735,155.1" id="Fill-230" fill="#564641"></path>
            <path d="M38.93,163.54 C38.704,159.932 35.597,157.189 31.989,157.414 C28.381,157.639 25.639,160.747 25.864,164.355 C26.089,167.963 29.196,170.705 32.804,170.48 C36.412,170.255 39.155,167.148 38.93,163.54" id="Fill-231" fill="#564641"></path>
            <path d="M52.819,152.469 C52.819,158.612 47.839,163.592 41.696,163.592 C35.554,163.592 30.574,158.612 30.574,152.469 C30.574,146.327 35.554,141.347 41.696,141.347 C47.839,141.347 52.819,146.327 52.819,152.469" id="Fill-232" fill="#F0D3C3"></path>
            <path d="M157.218,152.469 C157.218,158.612 152.239,163.592 146.096,163.592 C139.954,163.592 134.974,158.612 134.974,152.469 C134.974,146.327 139.954,141.347 146.096,141.347 C152.239,141.347 157.218,146.327 157.218,152.469" id="Fill-233" fill="#F0D3C3"></path>
            <path d="M83.542,186.648 C83.542,184.141 85.68,182.109 88.318,182.109 C90.955,182.109 93.094,184.141 93.094,186.648" id="Fill-234" fill="#B88A82"></path>
            <path d="M91.826,186.648 C91.826,184.141 93.965,182.109 96.602,182.109 C99.24,182.109 101.378,184.141 101.378,186.648" id="Fill-235" fill="#B88A82"></path>
            <path d="M44.649,138.039 C44.649,142.295 41.199,145.745 36.943,145.745 C32.688,145.745 29.237,142.295 29.237,138.039 C29.237,133.783 32.688,130.333 36.943,130.333 C41.199,130.333 44.649,133.783 44.649,138.039" id="Fill-236" fill="#564641"></path>
            <path d="M42.606,128.445 C42.606,132.701 39.156,136.151 34.9,136.151 C30.644,136.151 27.194,132.701 27.194,128.445 C27.194,124.189 30.644,120.739 34.9,120.739 C39.156,120.739 42.606,124.189 42.606,128.445" id="Fill-237" fill="#564641"></path>
            <path d="M155.685,138.444 C155.685,142.7 152.235,146.15 147.98,146.15 C143.724,146.15 140.274,142.7 140.274,138.444 C140.274,134.188 143.724,130.738 147.98,130.738 C152.235,130.738 155.685,134.188 155.685,138.444" id="Fill-238" fill="#564641"></path>
            <path d="M165.467,149.814 C165.467,156.317 160.195,161.589 153.692,161.589 C147.188,161.589 141.917,156.317 141.917,149.814 C141.917,143.311 147.188,138.039 153.692,138.039 C160.195,138.039 165.467,143.311 165.467,149.814" id="Fill-239" fill="#564641"></path>
            <path d="M169.391,148.214 C169.391,152.47 165.941,155.92 161.685,155.92 C157.43,155.92 153.98,152.47 153.98,148.214 C153.98,143.958 157.43,140.508 161.685,140.508 C165.941,140.508 169.391,143.958 169.391,148.214" id="Fill-240" fill="#564641"></path>
            <path d="M119.28,52.55 C119.28,56.482 108.523,59.669 95.253,59.669 C81.984,59.669 71.227,56.482 71.227,52.55 C71.227,48.618 81.984,45.431 95.253,45.431 C108.523,45.431 119.28,48.618 119.28,52.55" id="Fill-241" fill="#564641"></path>
            <path d="M119.282,56.907 C119.282,60.165 116.641,62.806 113.383,62.806 C110.125,62.806 107.484,60.165 107.484,56.907 C107.484,53.649 110.125,51.008 113.383,51.008 C116.641,51.008 119.282,53.649 119.282,56.907" id="Fill-242" fill="#564641"></path>
            <path d="M75.496,76.407 C75.496,78.636 73.69,80.442 71.461,80.442 C69.233,80.442 67.427,78.636 67.427,76.407 C67.427,74.179 69.233,72.373 71.461,72.373 C73.69,72.373 75.496,74.179 75.496,76.407" id="Fill-243" fill="#564641"></path>
            <path d="M97.215,70.691 C97.215,73.075 95.173,75.008 92.655,75.008 C90.137,75.008 88.095,73.075 88.095,70.691 C88.095,68.307 90.137,66.374 92.655,66.374 C95.173,66.374 97.215,68.307 97.215,70.691" id="Fill-244" fill="#564641"></path>
            <path d="M112.807,67.119 C112.807,69.503 110.766,71.436 108.247,71.436 C105.729,71.436 103.687,69.503 103.687,67.119 C103.687,64.735 105.729,62.803 108.247,62.803 C110.766,62.803 112.807,64.735 112.807,67.119" id="Fill-245" fill="#564641"></path>
            <path d="M108.303,182.944 C108.303,189.652 101.178,195.09 92.389,195.09 C83.6,195.09 76.475,189.652 76.475,182.944 C76.475,182.944 83.542,185.944 92.1,185.944 C101.378,185.944 108.303,182.944 108.303,182.944" id="Fill-246" fill="#D59F94"></path>
            <path d="M62.953,159.834 L56.82,159.834 C53.833,159.834 51.412,157.413 51.412,154.426 C51.412,151.439 53.833,149.018 56.82,149.018 L62.953,149.018 C65.94,149.018 68.362,151.439 68.362,154.426 C68.362,157.413 65.94,159.834 62.953,159.834" id="Fill-247" fill="#D59F94"></path>
            <path d="M123.879,159.834 L117.746,159.834 C114.759,159.834 112.337,157.413 112.337,154.426 C112.337,151.439 114.759,149.018 117.746,149.018 L123.879,149.018 C126.866,149.018 129.287,151.439 129.287,154.426 C129.287,157.413 126.866,159.834 123.879,159.834" id="Fill-248" fill="#D59F94"></path>
            <path d="M113.314,129.101 C117.548,129.095 121.369,129.954 123.96,131.224 C124.953,131.707 126.15,131.295 126.634,130.302 C127.117,129.309 126.705,128.111 125.712,127.628 C122.405,126.024 118.079,125.106 113.314,125.101 C112.209,125.101 111.314,125.996 111.314,127.101 C111.314,128.205 112.209,129.101 113.314,129.101" id="Fill-249" fill="#503D3A"></path>
            <path d="M57.681,131.14 C60.254,129.618 64.169,128.572 68.534,128.579 C69.638,128.579 70.534,127.684 70.534,126.579 C70.534,125.474 69.638,124.579 68.534,124.579 C63.544,124.586 59.025,125.72 55.654,127.691 C54.702,128.251 54.383,129.477 54.943,130.429 C55.503,131.381 56.728,131.7 57.681,131.14" id="Fill-253" fill="#503D3A"></path>
            <path d="M43.502,168.526 C43.502,171.368 41.198,173.672 38.355,173.672 C35.513,173.672 33.208,171.368 33.208,168.526 C33.208,165.683 35.513,163.379 38.355,163.379 C41.198,163.379 43.502,165.683 43.502,168.526" id="Fill-285" fill="#564641"></path>
            <path d="M39.907,163.18 C39.907,165.521 38.009,167.42 35.667,167.42 C33.326,167.42 31.427,165.521 31.427,163.18 C31.427,160.838 33.326,158.94 35.667,158.94 C38.009,158.94 39.907,160.838 39.907,163.18" id="Fill-286" fill="#FFFFFF"></path>
        </g>
    </g>
</svg>