<?xml version="1.0" encoding="UTF-8" standalone="no"?>
<svg width="338px" height="369px" viewBox="0 0 338 369" version="1.1" xmlns="http://www.w3.org/2000/svg" xmlns:xlink="http://www.w3.org/1999/xlink">
    <!-- Generator: Sketch 39.1 (31720) - http://www.bohemiancoding.com/sketch -->
    <title>dichenko</title>
    <desc>Created with Sketch.</desc>
    <defs>
        <rect id="path-1" x="230" y="219" width="38" height="26" rx="13"></rect>
        <mask id="mask-2" maskContentUnits="userSpaceOnUse" maskUnits="objectBoundingBox" x="0" y="0" width="38" height="26" fill="white">
            <use xlink:href="#path-1"></use>
        </mask>
        <rect id="path-3" x="246.071068" y="237.071068" width="10" height="10"></rect>
        <mask id="mask-4" maskContentUnits="userSpaceOnUse" maskUnits="objectBoundingBox" x="0" y="0" width="10" height="10" fill="white">
            <use xlink:href="#path-3"></use>
        </mask>
    </defs>
    <g id="Page-1" stroke="none" stroke-width="1" fill="none" fill-rule="evenodd">
        <g id="Artboard" transform="translate(-81.000000, -63.000000)">
            <g id="dichenko" transform="translate(81.000000, 63.000000)">
                <circle id="Oval-Copy-3" fill="#F36F2F" cx="290" cy="167" r="48"></circle>
                <circle id="Oval-Copy-10" fill="#F36F2F" cx="55" cy="92" r="33"></circle>
                <circle id="Oval-Copy-11" fill="#F36F2F" cx="67" cy="144" r="33"></circle>
                <circle id="Oval-Copy-12" fill="#F36F2F" cx="76" cy="193" r="38"></circle>
                <circle id="Oval-Copy-13" fill="#F36F2F" cx="44" cy="239" r="32"></circle>
                <circle id="Oval-Copy-15" fill="#F36F2F" cx="33" cy="204" r="13"></circle>
                <circle id="Oval-Copy-16" fill="#F36F2F" cx="45" cy="168" r="13"></circle>
                <circle id="Oval-Copy-17" fill="#F36F2F" cx="16" cy="281" r="10"></circle>
                <circle id="Oval-Copy-18" fill="#F36F2F" cx="10" cy="297" r="10"></circle>
                <circle id="Oval-Copy-19" fill="#F36F2F" cx="55" cy="346" r="19"></circle>
                <circle id="Oval-Copy-21" fill="#F36F2F" cx="83" cy="346" r="11"></circle>
                <circle id="Oval-Copy-22" fill="#F36F2F" cx="101" cy="338" r="11"></circle>
                <circle id="Oval-Copy-23" fill="#F36F2F" cx="121" cy="348" r="13"></circle>
                <circle id="Oval-Copy-24" fill="#F36F2F" cx="251" cy="340" r="13"></circle>
                <circle id="Oval-Copy-25" fill="#F36F2F" cx="218" cy="341" r="22"></circle>
                <circle id="Oval-Copy-26" fill="#F36F2F" cx="187" cy="340" r="15"></circle>
                <circle id="Oval-Copy-27" fill="#F36F2F" cx="154" cy="347" r="22"></circle>
                <circle id="Oval-Copy-20" fill="#F36F2F" cx="62" cy="339" r="12"></circle>
                <circle id="Oval-Copy-14" fill="#F36F2F" cx="57" cy="300" r="47"></circle>
                <circle id="Oval-Copy-7" fill="#F36F2F" cx="303" cy="240" r="31"></circle>
                <rect id="Rectangle-2" fill="#F36F2F" x="62" y="69" width="226" height="276"></rect>
                <use id="Rectangle-4" stroke="#FFE6C8" mask="url(#mask-2)" stroke-width="12" fill="#DCBF9C" xlink:href="#path-1"></use>
                <rect id="Rectangle" fill="#FFEAD0" x="108" y="103" width="142" height="202" rx="71"></rect>
                <rect id="Rectangle-Copy" fill="#FFE5C5" x="108" y="103" width="142" height="202" rx="71"></rect>
                <path d="M153,252 C153,263.045695 164.864454,272 179.5,272 L179.5,272 C194.135546,272 206,263.045695 206,252" id="Oval-4" fill="#FFFFFF"></path>
                <path d="M184,287 C184,284.790861 182.209139,283 180,283 C177.790861,283 176,284.790861 176,287" id="Oval-3" stroke="#FFCBB1" stroke-width="4" stroke-linecap="round" transform="translate(180.000000, 285.000000) rotate(-180.000000) translate(-180.000000, -285.000000) "></path>
                <circle id="Oval-2" fill="#765128" cx="212" cy="211" r="12"></circle>
                <circle id="Oval-2-Copy" fill="#765128" cx="150" cy="211" r="12"></circle>
                <circle id="Oval" fill="#F36F2F" cx="109" cy="76" r="43"></circle>
                <circle id="Oval-Copy" fill="#F36F2F" cx="201" cy="57" r="57"></circle>
                <circle id="Oval-Copy-2" fill="#F36F2F" cx="272" cy="95" r="36"></circle>
                <circle id="Oval-Copy-4" fill="#F36F2F" cx="302" cy="301" r="36"></circle>
                <circle id="Oval-Copy-5" fill="#F36F2F" cx="278" cy="337" r="18"></circle>
                <circle id="Oval-Copy-6" fill="#F36F2F" cx="304" cy="343" r="12"></circle>
                <circle id="Oval-Copy-8" fill="#F36F2F" cx="304" cy="119" r="12"></circle>
                <circle id="Oval-Copy-9" fill="#F36F2F" cx="318" cy="203" r="12"></circle>
                <rect id="Rectangle-3-Copy-2" fill="#FFE6C8" x="202" y="211" width="38" height="24" rx="12"></rect>
                <rect id="Rectangle-3-Copy-3" fill="#FFE6C8" x="122" y="211" width="38" height="24" rx="12"></rect>
                <rect id="Rectangle-3" fill="#FE8E8E" style="mix-blend-mode: multiply;" opacity="0.250641325" x="206" y="219" width="30" height="20" rx="10"></rect>
                <rect id="Rectangle-3-Copy" fill="#FE8E8E" style="mix-blend-mode: multiply;" opacity="0.250641325" x="124" y="219" width="30" height="20" rx="10"></rect>
                <circle id="Oval-5" fill="#F36F2F" cx="182" cy="107" r="12"></circle>
                <circle id="Oval-5-Copy" fill="#F36F2F" cx="197" cy="118" r="9"></circle>
                <circle id="Oval-5-Copy-2" fill="#F36F2F" cx="215" cy="132" r="17"></circle>
                <circle id="Oval-5-Copy-3" fill="#F36F2F" cx="220" cy="175" r="12"></circle>
                <circle id="Oval-5-Copy-4" fill="#F36F2F" cx="215" cy="186" r="7"></circle>
                <circle id="Oval-5-Copy-5" fill="#F36F2F" cx="231" cy="152" r="23"></circle>
                <circle id="Oval-5-Copy-8" fill="#F36F2F" cx="250" cy="173" r="12"></circle>
                <circle id="Oval-5-Copy-9" fill="#F36F2F" cx="248" cy="199" r="8"></circle>
                <circle id="Oval-5-Copy-10" fill="#F36F2F" cx="256" cy="189" r="8"></circle>
                <circle id="Oval-5-Copy-11" fill="#F36F2F" cx="261" cy="194" r="17"></circle>
                <circle id="Oval-5-Copy-12" fill="#F36F2F" cx="110" cy="177" r="22"></circle>
                <circle id="Oval-5-Copy-13" fill="#F36F2F" cx="124" cy="195" r="8"></circle>
                <circle id="Oval-5-Copy-14" fill="#F36F2F" cx="109" cy="200" r="13"></circle>
                <circle id="Oval-5-Copy-15" fill="#F36F2F" cx="106" cy="225" r="14"></circle>
                <circle id="Oval-5-Copy-6" fill="#F36F2F" cx="209" cy="104" r="17"></circle>
                <circle id="Oval-5-Copy-7" fill="#F36F2F" cx="237" cy="124" r="17"></circle>
                <circle id="Oval-6" fill="#F36F2F" cx="162" cy="113" r="14"></circle>
                <circle id="Oval-6-Copy" fill="#F36F2F" cx="141" cy="150" r="11"></circle>
                <circle id="Oval-6-Copy-2" fill="#F36F2F" cx="141" cy="128" r="15"></circle>
                <circle id="Oval-6-Copy-3" fill="#F36F2F" cx="147" cy="110" r="15"></circle>
                <circle id="Oval-6-Copy-4" fill="#F36F2F" cx="124" cy="135" r="16"></circle>
                <circle id="Oval-6-Copy-5" fill="#F36F2F" cx="118" cy="167" r="8"></circle>
                <circle id="Oval-6-Copy-7" fill="#F36F2F" cx="109" cy="158" r="13"></circle>
                <circle id="Oval-6-Copy-6" fill="#F36F2F" cx="124" cy="153" r="10"></circle>
                <use id="Rectangle-5" stroke="#7C3665" mask="url(#mask-4)" stroke-width="8" fill="#15030F" transform="translate(251.071068, 242.071068) rotate(-315.000000) translate(-251.071068, -242.071068) " xlink:href="#path-3"></use>
            </g>
        </g>
    </g>
</svg>