<?xml version="1.0" encoding="UTF-8" standalone="no"?>
<svg width="127px" height="173px" viewBox="0 0 127 173" version="1.1" xmlns="http://www.w3.org/2000/svg" xmlns:xlink="http://www.w3.org/1999/xlink">
    <!-- Generator: Sketch 39.1 (31720) - http://www.bohemiancoding.com/sketch -->
    <title>Group 3</title>
    <desc>Created with Sketch.</desc>
    <defs>
        <polygon id="path-1" points="0.077 0.45 0.077 167.008 101.906 167.008 101.906 0.45 0.077 0.45"></polygon>
    </defs>
    <g id="Page-1" stroke="none" stroke-width="1" fill="none" fill-rule="evenodd">
        <g id="Group-3">
            <path d="M23.199,91.946 C23.199,100.281 18.219,107.038 12.077,107.038 C5.934,107.038 0.955,100.281 0.955,91.946 C0.955,83.611 5.934,76.854 12.077,76.854 C18.219,76.854 23.199,83.611 23.199,91.946" id="Fill-69" fill="#F0D3C3"></path>
            <path d="M126.028,91.946 C126.028,100.281 121.048,107.038 114.906,107.038 C108.763,107.038 103.783,100.281 103.783,91.946 C103.783,83.611 108.763,76.854 114.906,76.854 C121.048,76.854 126.028,83.611 126.028,91.946" id="Fill-70" fill="#F0D3C3"></path>
            <g id="Group-75" transform="translate(12.000000, 15.000000)">
                <mask id="mask-2" fill="white">
                    <use xlink:href="#path-1"></use>
                </mask>
                <g id="Clip-72"></g>
                <path d="M101.906,90.497 C101.906,125.91 79.111,154.618 50.991,154.618 C22.872,154.618 0.077,125.91 0.077,90.497 C0.077,55.084 22.872,26.376 50.991,26.376 C79.111,26.376 101.906,55.084 101.906,90.497" id="Fill-71" fill="#4D3621" mask="url(#mask-2)"></path>
            </g>
            <path d="M120.383,91.017 C120.383,95.84 117.483,99.75 113.906,99.75 C110.328,99.75 107.428,95.84 107.428,91.017 C107.428,86.195 110.328,82.285 113.906,82.285 C117.483,82.285 120.383,86.195 120.383,91.017" id="Fill-89" fill="#D59F94"></path>
            <path d="M18.554,91.017 C18.554,95.84 15.654,99.75 12.077,99.75 C8.499,99.75 5.599,95.84 5.599,91.017 C5.599,86.195 8.499,82.285 12.077,82.285 C15.654,82.285 18.554,86.195 18.554,91.017" id="Fill-90" fill="#D59F94"></path>
            <path d="M62.991,156.07 L62.991,156.07 C34.872,156.07 12.077,133.275 12.077,105.156 L12.077,51.359 C12.077,23.24 34.872,0.445 62.991,0.445 C91.111,0.445 113.906,23.24 113.906,51.359 L113.906,105.156 C113.906,133.275 91.111,156.07 62.991,156.07" id="Fill-91" fill="#F0D3C3"></path>
            <path d="M89.372,133.654 C89.372,133.654 78.876,136.447 70.658,131.702 C62.439,126.957 59.61,116.471 59.61,116.471 C59.61,116.471 70.106,113.678 78.324,118.423 C86.543,123.168 89.372,133.654 89.372,133.654" id="Fill-92" fill="#4D3621"></path>
            <path d="M36.61,133.654 C36.61,133.654 47.106,136.447 55.324,131.702 C63.543,126.957 66.372,116.471 66.372,116.471 C66.372,116.471 55.876,113.678 47.658,118.423 C39.439,123.168 36.61,133.654 36.61,133.654" id="Fill-93" fill="#4D3621"></path>
            <path d="M41.674,85.998 C41.674,89.575 38.774,92.475 35.197,92.475 C31.619,92.475 28.72,89.575 28.72,85.998 C28.72,82.42 31.619,79.521 35.197,79.521 C38.774,79.521 41.674,82.42 41.674,85.998" id="Fill-94" fill="#0B0C0A"></path>
            <path d="M95.976,85.998 C95.976,89.575 93.076,92.475 89.499,92.475 C85.922,92.475 83.022,89.575 83.022,85.998 C83.022,82.42 85.922,79.521 89.499,79.521 C93.076,79.521 95.976,82.42 95.976,85.998" id="Fill-95" fill="#0B0C0A"></path>
            <path d="M72.233,142.085 C72.233,147.333 68.087,151.587 62.972,151.587 C57.857,151.587 53.711,147.333 53.711,142.085 C53.711,136.838 57.857,134.584 62.972,134.584 C68.087,134.584 72.233,136.838 72.233,142.085" id="Fill-96" fill="#4D3621"></path>
            <path d="M107.886,105.47 L107.886,118.703 C107.886,132.06 103.189,144.049 95.265,152.676 C91.301,156.99 86.53,160.468 81.105,162.874 C75.679,165.279 69.597,166.617 62.972,166.618 C56.348,166.617 50.265,165.279 44.839,162.874 C36.704,159.265 30.031,153.244 25.364,145.606 C20.701,137.971 18.058,128.72 18.058,118.703 L18.058,105.47 C18.058,103.813 16.714,102.47 15.058,102.47 C13.401,102.47 12.058,103.813 12.058,105.47 L12.058,118.703 C12.057,133.465 17.258,146.934 26.261,156.735 C30.761,161.634 36.211,165.612 42.407,168.359 C48.601,171.107 55.537,172.619 62.972,172.618 C70.407,172.619 77.343,171.107 83.538,168.359 C92.833,164.239 100.443,157.348 105.701,148.734 C110.962,140.118 113.887,129.776 113.887,118.703 L113.887,105.47 C113.887,103.813 112.543,102.47 110.887,102.47 C109.23,102.47 107.887,103.813 107.887,105.47 L107.886,105.47" id="Fill-97" fill="#4D3621"></path>
            <path d="M113.849,103.443 C113.849,105.692 111.025,107.516 107.541,107.516 C104.058,107.516 101.234,105.692 101.234,103.443 C101.234,101.194 104.058,99.371 107.541,99.371 C111.025,99.371 113.849,101.194 113.849,103.443" id="Fill-98" fill="#F0D3C3"></path>
            <path d="M26.674,103.443 C26.674,105.692 23.849,107.516 20.366,107.516 C16.882,107.516 14.058,105.692 14.058,103.443 C14.058,101.194 16.882,99.371 20.366,99.371 C23.849,99.371 26.674,101.194 26.674,103.443" id="Fill-99" fill="#F0D3C3"></path>
            <path d="M40.816,73.35 L26.531,73.35 C24.401,73.35 22.674,71.623 22.674,69.492 C22.674,67.361 24.401,65.634 26.531,65.634 L40.816,65.634 C42.946,65.634 44.674,67.361 44.674,69.492 C44.674,71.623 42.946,73.35 40.816,73.35" id="Fill-101" fill="#4D3621"></path>
            <path d="M83.64,73.35 L97.924,73.35 C100.055,73.35 101.782,71.623 101.782,69.492 C101.782,67.361 100.055,65.634 97.924,65.634 L83.64,65.634 C81.509,65.634 79.782,67.361 79.782,69.492 C79.782,71.623 81.509,73.35 83.64,73.35" id="Fill-102" fill="#4D3621"></path>
            <path d="M44.145,152.467 L53.711,157.371 L53.711,147.768 C53.711,151.986 50.15,154.871 44.145,152.467" id="Fill-103" fill="#4D3621"></path>
            <path d="M81.799,152.467 L72.233,157.371 L72.233,147.768 C72.233,151.986 75.794,154.871 81.799,152.467" id="Fill-104" fill="#4D3621"></path>
            <polygon id="Fill-105" fill="#4D3621" points="53.711 160.621 72.247 160.621 72.247 142.085 53.711 142.085"></polygon>
            <path d="M118.052,77.466 C117.054,77.068 115.998,76.854 114.906,76.854 C114.568,76.854 114.235,76.874 113.906,76.914 L113.906,71.484 C115.647,73.168 117.056,75.161 118.052,77.466" id="Fill-107" fill="#FFFFFF"></path>
            <path d="M113.906,102.767 L113.906,99.75 C114.785,99.75 115.623,99.514 116.388,99.086 C115.663,100.384 114.831,101.615 113.906,102.767 M119.721,87.167 C118.665,84.275 116.458,82.285 113.906,82.285 L113.906,76.914 C114.235,76.874 114.568,76.854 114.906,76.854 C115.998,76.854 117.054,77.068 118.052,77.466 C119.142,79.991 119.739,82.891 119.739,86.174 C119.739,86.506 119.733,86.837 119.721,87.167" id="Fill-108" fill="#F8E7DC"></path>
            <path d="M113.906,99.75 L113.906,82.285 C116.458,82.285 118.665,84.275 119.721,87.167 C119.562,91.483 118.371,95.536 116.388,99.086 C115.623,99.514 114.785,99.75 113.906,99.75" id="Fill-109" fill="#E8C9BD"></path>
            <path d="M93.226,112.687 C78.583,112.687 66.712,100.817 66.712,86.174 C66.712,75.703 72.783,69.12 81.597,66.219 C80.507,66.901 79.782,68.111 79.782,69.492 C79.782,71.623 81.509,73.35 83.64,73.35 L97.924,73.35 C100.055,73.35 101.782,71.623 101.782,69.492 C101.782,67.361 100.055,65.634 97.924,65.634 L83.64,65.634 L83.601,65.634 C86.585,64.87 89.83,64.492 93.226,64.492 C101.588,64.492 109.046,66.787 113.906,71.484 L113.906,102.767 C113.869,102.813 113.832,102.859 113.795,102.905 C113.386,100.91 110.742,99.371 107.541,99.371 C104.058,99.371 101.234,101.194 101.234,103.443 C101.234,105.692 104.058,107.516 107.541,107.516 C107.657,107.516 107.772,107.514 107.886,107.51 L107.886,108.269 C103.687,111.06 98.646,112.687 93.226,112.687 M89.499,79.521 C85.922,79.521 83.022,82.42 83.022,85.998 C83.022,89.575 85.922,92.475 89.499,92.475 C93.076,92.475 95.976,89.575 95.976,85.998 C95.976,82.42 93.076,79.521 89.499,79.521" id="Fill-110" fill="#F8E7DC"></path>
            <path d="M89.499,92.475 C85.922,92.475 83.022,89.575 83.022,85.998 C83.022,82.42 85.922,79.521 89.499,79.521 C93.076,79.521 95.976,82.42 95.976,85.998 C95.976,89.575 93.076,92.475 89.499,92.475" id="Fill-111" fill="#5A5956"></path>
            <path d="M107.886,108.269 L107.886,107.51 C108.316,107.495 108.734,107.452 109.136,107.385 C108.728,107.691 108.312,107.985 107.886,108.269" id="Fill-112" fill="#907A61"></path>
            <path d="M107.541,107.516 C104.058,107.516 101.234,105.692 101.234,103.443 C101.234,101.194 104.058,99.371 107.541,99.371 C110.742,99.371 113.386,100.91 113.795,102.905 C112.43,104.58 110.865,106.086 109.136,107.385 C108.734,107.452 108.316,107.495 107.886,107.51 C107.772,107.514 107.657,107.516 107.541,107.516" id="Fill-113" fill="#F8E7DC"></path>
            <path d="M97.924,73.35 L83.64,73.35 C81.509,73.35 79.782,71.623 79.782,69.492 C79.782,68.111 80.507,66.901 81.597,66.219 C82.25,66.004 82.919,65.809 83.601,65.634 L83.64,65.634 L97.924,65.634 C100.055,65.634 101.782,67.361 101.782,69.492 C101.782,71.623 100.055,73.35 97.924,73.35" id="Fill-114" fill="#907A61"></path>
            <path d="M119.739,86.174 L118.239,86.174 C118.238,93.086 115.441,99.33 110.913,103.861 C106.381,108.39 100.138,111.187 93.226,111.187 C86.314,111.187 80.07,108.39 75.538,103.861 C71.01,99.33 68.213,93.086 68.212,86.174 C68.213,82.715 68.909,79.771 70.141,77.272 C71.99,73.531 75.06,70.743 79.045,68.846 C83.025,66.954 87.914,65.99 93.226,65.992 C100.312,65.988 106.628,67.707 111.075,71.043 C113.302,72.711 115.077,74.775 116.31,77.272 C117.542,79.771 118.238,82.715 118.239,86.174 L121.239,86.174 C121.24,82.312 120.452,78.885 119,75.945 C116.825,71.529 113.171,68.258 108.693,66.136 C104.21,64.009 98.896,62.993 93.226,62.992 C85.669,62.995 78.728,64.796 73.579,68.641 C71.009,70.562 68.9,73.004 67.451,75.945 C65.999,78.885 65.211,82.312 65.212,86.174 C65.213,101.646 77.754,114.186 93.226,114.187 C108.697,114.186 121.238,101.646 121.239,86.174 L119.739,86.174" id="Fill-115" fill="#515251"></path>
            <path d="M7.38,78.262 C8.383,75.42 9.994,73.027 12.077,71.075 L12.077,76.854 C10.398,76.854 8.807,77.358 7.38,78.262" id="Fill-116" fill="#FFFFFF"></path>
            <path d="M12.077,101.888 C11.425,101.099 10.819,100.269 10.264,99.404 C10.839,99.629 11.448,99.75 12.077,99.75 L12.077,101.888 M6.257,87.178 C6.223,86.633 6.205,86.083 6.205,85.529 C6.205,82.844 6.617,80.423 7.38,78.262 C8.807,77.358 10.398,76.854 12.077,76.854 L12.077,82.285 C9.521,82.285 7.311,84.28 6.257,87.178" id="Fill-117" fill="#F8E7DC"></path>
            <path d="M12.077,99.75 C11.448,99.75 10.839,99.629 10.264,99.404 C7.974,95.835 6.541,91.662 6.257,87.178 C7.311,84.28 9.521,82.285 12.077,82.285 L12.077,99.75" id="Fill-118" fill="#E8C9BD"></path>
            <path d="M31.93,111.253 C26.863,111.253 22.139,109.788 18.157,107.259 C18.844,107.425 19.588,107.516 20.366,107.516 C23.849,107.516 26.674,105.692 26.674,103.443 C26.674,101.194 23.849,99.371 20.366,99.371 C17.332,99.371 14.799,100.753 14.195,102.596 C13.818,102.709 13.472,102.894 13.174,103.135 C12.795,102.731 12.429,102.316 12.077,101.888 L12.077,71.075 C16.795,66.654 23.937,64.492 31.93,64.492 C46.137,64.492 57.655,71.322 57.655,85.529 C57.655,99.736 46.137,111.253 31.93,111.253 M35.197,79.521 C31.619,79.521 28.72,82.42 28.72,85.998 C28.72,89.575 31.619,92.475 35.197,92.475 C38.774,92.475 41.674,89.575 41.674,85.998 C41.674,82.42 38.774,79.521 35.197,79.521 M26.531,65.634 C24.401,65.634 22.674,67.361 22.674,69.492 C22.674,71.623 24.401,73.35 26.531,73.35 L40.816,73.35 C42.946,73.35 44.674,71.623 44.674,69.492 C44.674,67.361 42.946,65.634 40.816,65.634 L26.531,65.634" id="Fill-119" fill="#F8E7DC"></path>
            <path d="M35.197,92.475 C31.619,92.475 28.72,89.575 28.72,85.998 C28.72,82.42 31.619,79.521 35.197,79.521 C38.774,79.521 41.674,82.42 41.674,85.998 C41.674,89.575 38.774,92.475 35.197,92.475" id="Fill-120" fill="#5A5956"></path>
            <path d="M14.143,104.113 C13.811,103.796 13.488,103.469 13.174,103.135 C13.472,102.894 13.818,102.709 14.195,102.596 C14.105,102.869 14.058,103.153 14.058,103.443 C14.058,103.671 14.087,103.895 14.143,104.113" id="Fill-121" fill="#907A61"></path>
            <path d="M20.366,107.516 C19.588,107.516 18.844,107.425 18.157,107.259 C16.715,106.344 15.371,105.288 14.143,104.113 C14.087,103.895 14.058,103.671 14.058,103.443 C14.058,103.153 14.105,102.869 14.195,102.596 C14.799,100.753 17.332,99.371 20.366,99.371 C23.849,99.371 26.674,101.194 26.674,103.443 C26.674,105.692 23.849,107.516 20.366,107.516" id="Fill-122" fill="#F8E7DC"></path>
            <path d="M40.816,73.35 L26.531,73.35 C24.401,73.35 22.674,71.623 22.674,69.492 C22.674,67.361 24.401,65.634 26.531,65.634 L40.816,65.634 C42.946,65.634 44.674,67.361 44.674,69.492 C44.674,71.623 42.946,73.35 40.816,73.35" id="Fill-123" fill="#907A61"></path>
            <path d="M57.655,85.529 L56.155,85.529 C56.154,92.223 53.445,98.27 49.059,102.658 C44.671,107.044 38.624,109.753 31.93,109.753 C25.236,109.753 19.189,107.044 14.801,102.658 C10.415,98.27 7.706,92.223 7.705,85.529 C7.707,82.179 8.381,79.329 9.572,76.912 C11.362,73.292 14.332,70.594 18.191,68.757 C22.045,66.924 26.781,65.99 31.93,65.992 C38.799,65.988 44.918,67.655 49.221,70.884 C51.378,72.499 53.094,74.495 54.288,76.912 C55.479,79.329 56.153,82.179 56.155,85.529 L59.155,85.529 C59.156,81.776 58.39,78.443 56.978,75.584 C54.862,71.289 51.309,68.109 46.956,66.047 C42.599,63.98 37.437,62.993 31.93,62.992 C24.592,62.995 17.848,64.743 12.841,68.482 C10.343,70.35 8.292,72.725 6.882,75.584 C5.47,78.443 4.704,81.776 4.706,85.529 C4.706,100.565 16.894,112.752 31.93,112.753 C46.966,112.752 59.154,100.565 59.155,85.529 L57.655,85.529" id="Fill-124" fill="#515251"></path>
            <path d="M59.155,84.473 C59.156,83.829 59.44,83.235 59.984,82.748 C60.526,82.269 61.316,81.943 62.217,81.944 C63.118,81.943 63.909,82.269 64.451,82.748 C64.994,83.235 65.278,83.829 65.28,84.473 L68.28,84.473 C68.282,82.892 67.544,81.472 66.436,80.5 C65.327,79.521 63.836,78.945 62.217,78.944 C60.598,78.945 59.107,79.521 57.998,80.5 C56.89,81.472 56.153,82.892 56.155,84.473 L59.155,84.473" id="Fill-125" fill="#515251"></path>
        </g>
    </g>
</svg>