<?xml version="1.0" encoding="UTF-8" standalone="no"?>
<svg width="175px" height="205px" viewBox="0 0 175 205" version="1.1" xmlns="http://www.w3.org/2000/svg" xmlns:xlink="http://www.w3.org/1999/xlink">
    <!-- Generator: Sketch 39.1 (31720) - http://www.bohemiancoding.com/sketch -->
    <title>Group</title>
    <desc>Created with Sketch.</desc>
    <defs>
        <polygon id="path-1" points="0 0.45 0 167.008 175 167.008 175 0.45 1.5015177e-20 0.45"></polygon>
    </defs>
    <g id="Page-1" stroke="none" stroke-width="1" fill="none" fill-rule="evenodd">
        <g id="Group">
            <path d="M29.953,26.883 C29.953,26.883 -19.026,101.063 19.974,147.563 C58.974,194.063 48.474,204.063 48.474,204.063 C48.474,204.063 115.474,191.563 140.502,139.563 C155.801,107.776 159.974,71.063 132.077,26.883 L29.953,26.883" id="Fill-47" fill="#FDED9D"></path>
            <g id="Group-75" transform="translate(0.000000, 19.000000)">
                <mask id="mask-2" fill="white">
                    <use xlink:href="#path-1"></use>
                </mask>
                <g id="Clip-72"></g>
                <path d="M36.8,49.73 C36.8,49.73 -12.207,95.508 20,122.174 C52.207,148.841 33.58,167.008 33.58,167.008 C33.58,167.008 83.402,142.335 48.571,115.124 C13.739,87.912 46.428,40.451 46.428,40.451 L36.8,49.73" id="Fill-73" fill="#FFF6C4" mask="url(#mask-2)"></path>
                <path d="M23.578,11.175 C23.578,11.175 -18.041,64.087 9.31,94.909 C36.662,125.731 20.843,146.729 20.843,146.729 C20.843,146.729 63.154,118.212 33.574,86.759 C3.993,55.307 31.754,0.45 31.754,0.45 L23.578,11.175" id="Fill-74" fill="#FFF6C4" mask="url(#mask-2)"></path>
            </g>
            <path d="M137.658,25.648 C137.658,25.648 175.945,88.64 152.891,115.307 C129.838,141.973 141.872,169.612 141.872,169.612 C141.872,169.612 106.209,144.94 131.142,117.728 C156.074,90.516 139.566,52.334 139.566,52.334 L137.658,25.648" id="Fill-76" fill="#FFF6C4"></path>
            <path d="M106.103,2.668 C99.975,2.291 94.157,3.667 88.99,6.396 C84.714,8.654 79.749,8.512 75.636,5.881 C70.114,2.35 63.684,0.478 56.85,0.854 C39.154,1.826 24.628,18.186 23.414,38.557 C21.999,62.29 38.283,82.048 58.572,82.048 C66.108,82.048 73.086,79.313 78.816,74.67 C85.364,81.977 94.281,86.481 104.115,86.481 C125.059,86.481 141.87,66.086 140.413,41.588 C139.168,20.645 124.291,3.784 106.103,2.668" id="Fill-77" fill="#FFF6C4"></path>
            <path d="M105.319,24.392 C100.249,28.002 93.67,30.188 86.474,30.188 C78.397,30.188 71.094,27.439 65.836,23.007 C47.474,30.245 34.474,48.13 34.474,69.063 L34.474,101.063 C34.474,128.401 56.635,150.563 83.974,150.563 C111.312,150.563 133.474,128.401 133.474,101.063 L133.474,69.063 C133.474,49.369 121.971,32.363 105.319,24.392" id="Fill-78" fill="#F0D3C3"></path>
            <path d="M53.474,92.813 C53.474,89.223 56.384,86.313 59.974,86.313 C63.563,86.313 66.474,89.223 66.474,92.813" id="Fill-79" fill="#503D3A"></path>
            <path d="M102.474,92.813 C102.474,89.223 105.384,86.313 108.974,86.313 C112.564,86.313 115.474,89.223 115.474,92.813" id="Fill-80" fill="#503D3A"></path>
            <path d="M115.861,112.751 L111.279,111.218 C108.136,110.167 106.441,106.767 107.492,103.625 C108.544,100.482 111.944,98.787 115.086,99.838 L119.668,101.371 C122.811,102.423 124.506,105.822 123.455,108.965 C122.404,112.107 119.004,113.803 115.861,112.751" id="Fill-81" fill="#D59F94"></path>
            <path d="M101.488,122.729 C101.488,120.336 93.642,118.396 83.964,118.396 C74.285,118.396 66.439,120.336 66.439,122.729 C66.439,125.123 74.285,127.063 83.964,127.063 C93.642,127.063 101.488,125.123 101.488,122.729" id="Fill-82" fill="#E7AEA4"></path>
            <path d="M126.249,71.202 C126.249,71.202 161.328,116.98 138.275,143.647 C115.221,170.313 128.554,188.48 128.554,188.48 C128.554,188.48 92.892,163.808 117.824,136.596 C142.756,109.384 126.249,71.202 126.249,71.202" id="Fill-83" fill="#FFFCF4"></path>
            <path d="M66.527,122.729 C66.517,122.895 66.508,123.062 66.508,123.229 C66.508,129.581 74.343,134.729 84.008,134.729 C93.673,134.729 101.508,129.581 101.508,123.229 C101.508,123.062 101.5,122.895 101.489,122.729 L66.527,122.729" id="Fill-84" fill="#FFFFFF"></path>
            <path d="M86.038,29.866 C80.988,30.284 76.21,28.782 72.065,26.883 C72.057,27.003 65.836,22.885 65.836,23.007 C65.836,27.425 77.41,35.243 84.038,35.243 C90.056,35.243 100.313,30.295 101.179,26.444 C97.039,28.496 94.986,29.124 86.038,29.866" id="Fill-85" fill="#FFFCF4"></path>
            <path d="M41.583,75.842 C41.583,75.842 6.503,121.619 29.557,148.286 C52.61,174.953 39.277,193.119 39.277,193.119 C39.277,193.119 74.94,168.447 50.007,141.235 C25.075,114.024 48.474,66.563 48.474,66.563 L41.583,75.842" id="Fill-86" fill="#FFFCF4"></path>
            <path d="M75.911,32.816 C75.911,32.816 42.224,-13.937 23.474,53.563 C16.709,78.353 17.954,92.785 9.334,107.563 C1.895,120.317 20.334,139.563 20.334,139.563 C20.334,139.563 6.328,116.295 23.328,106.295 C40.328,96.295 58.6,93.347 54.334,53.563 C50.474,17.563 75.911,32.816 75.911,32.816" id="Fill-87" fill="#FFFCF4"></path>
            <path d="M94.038,32.461 C94.038,32.461 128.355,-5.437 145.306,59.563 C147.973,81.229 139.306,101.563 162.306,109.563 C185.306,117.563 168.306,146.563 168.306,146.563 C168.306,146.563 178.306,129.563 158.306,117.563 C138.306,105.563 121.306,90.563 123.306,63.563 C125.306,36.563 111.145,23.732 94.038,32.461" id="Fill-88" fill="#FFFCF4"></path>
            <path d="M55.445,112.751 L60.027,111.218 C63.169,110.167 64.865,106.767 63.813,103.625 C62.762,100.482 59.362,98.787 56.22,99.838 L51.637,101.371 C48.495,102.423 46.8,105.822 47.851,108.965 C48.902,112.107 52.302,113.803 55.445,112.751" id="Fill-100" fill="#D59F94"></path>
        </g>
    </g>
</svg>