<?xml version="1.0" encoding="UTF-8" standalone="no"?>
<svg width="126px" height="173px" viewBox="0 0 126 173" version="1.1" xmlns="http://www.w3.org/2000/svg" xmlns:xlink="http://www.w3.org/1999/xlink">
    <!-- Generator: Sketch 39.1 (31720) - http://www.bohemiancoding.com/sketch -->
    <title>tagakov</title>
    <desc>Created with Sketch.</desc>
    <defs></defs>
    <g id="Page-1" stroke="none" stroke-width="1" fill="none" fill-rule="evenodd">
        <g id="tagakov">
            <path d="M22.328,95.849 C22.328,104.184 17.349,110.941 11.206,110.941 C5.063,110.941 0.084,104.184 0.084,95.849 C0.084,87.514 5.063,80.757 11.206,80.757 C17.349,80.757 22.328,87.514 22.328,95.849" id="Fill-315" fill="#F0D3C3"></path>
            <path d="M17.683,94.921 C17.683,99.744 14.783,103.654 11.206,103.654 C7.629,103.654 4.729,99.744 4.729,94.921 C4.729,90.098 7.629,86.189 11.206,86.189 C14.783,86.189 17.683,90.098 17.683,94.921" id="Fill-316" fill="#D59F94"></path>
            <path d="M125.157,95.849 C125.157,104.184 120.177,110.941 114.035,110.941 C107.892,110.941 102.913,104.184 102.913,95.849 C102.913,87.514 107.892,80.757 114.035,80.757 C120.177,80.757 125.157,87.514 125.157,95.849" id="Fill-317" fill="#F0D3C3"></path>
            <path d="M119.512,94.921 C119.512,99.744 116.612,103.654 113.035,103.654 C109.458,103.654 106.558,99.744 106.558,94.921 C106.558,90.098 109.458,86.189 113.035,86.189 C116.612,86.189 119.512,90.098 119.512,94.921" id="Fill-318" fill="#D59F94"></path>
            <path d="M113.035,50.61 C113.035,78.254 90.24,100.663 62.12,100.663 C34.001,100.663 11.206,78.254 11.206,50.61 C11.206,22.967 34.001,0.558 62.12,0.558 C90.24,0.558 113.035,22.967 113.035,50.61" id="Fill-319" fill="#90694B"></path>
            <path d="M113.035,93.849 L113.035,129.928 C113.035,147.165 98.115,161.139 79.71,161.139 L44.531,161.139 C26.126,161.139 11.206,147.165 11.206,129.928 L11.206,93.849 C8.087,98.433 8.272,103.87 8.272,109.708 L8.272,142.698 C8.272,159.02 20.4,172.252 37.829,172.252 L86.412,172.252 C103.84,172.252 115.969,159.02 115.969,142.698 L115.969,109.708 C115.969,103.87 116.154,98.433 113.035,93.849" id="Fill-320" fill="#90694B"></path>
            <path d="M37.829,75.915 L86.412,75.915 C97.607,75.915 107.433,81.749 113.035,90.538 L113.035,47.846 C113.035,29.441 98.115,14.521 79.71,14.521 L44.531,14.521 C26.126,14.521 11.206,29.441 11.206,47.846 L11.206,90.538 C16.808,81.749 26.634,75.915 37.829,75.915" id="Fill-321" fill="#F0D3C3"></path>
            <path d="M44.531,162.386 L79.71,162.386 C98.115,162.386 113.035,147.466 113.035,129.061 L113.035,90.538 C107.433,81.749 97.607,75.915 86.412,75.915 L37.829,75.915 C26.634,75.915 16.808,81.749 11.206,90.538 L11.206,129.061 C11.206,147.466 26.126,162.386 44.531,162.386" id="Fill-322" fill="#F0D3C3"></path>
            <path d="M49.803,92.902 C49.803,96.479 46.658,98.379 42.778,98.379 C38.898,98.379 35.753,96.479 35.753,92.902 C35.753,89.324 38.898,88.424 42.778,88.424 C46.658,88.424 49.803,89.324 49.803,92.902" id="Fill-323" fill="#4D3621"></path>
            <path d="M88.206,92.902 C88.206,96.479 85.06,98.379 81.18,98.379 C77.3,98.379 74.155,96.479 74.155,92.902 C74.155,89.324 77.3,88.424 81.18,88.424 C85.06,88.424 88.206,89.324 88.206,92.902" id="Fill-324" fill="#4D3621"></path>
            <path d="M67.838,146.26 C67.838,148.884 65.269,151.011 62.101,151.011 C58.933,151.011 56.365,148.884 56.365,146.26 C56.365,143.637 58.933,142.51 62.101,142.51 C65.269,142.51 67.838,143.637 67.838,146.26" id="Fill-325" fill="#90694B"></path>
            <path d="M43.921,78.918 L25.28,80.623 C23.158,80.817 21.281,79.254 21.087,77.132 C20.893,75.011 22.273,71.142 24.395,70.948 L43.218,71.235 C45.34,71.041 47.217,72.604 47.411,74.725 C47.605,76.847 46.043,78.724 43.921,78.918" id="Fill-327" fill="#90694B"></path>
            <path d="M78.481,78.632 L97.552,80.882 C99.668,81.131 101.586,79.618 101.835,77.502 C102.085,75.386 100.806,71.482 98.69,71.233 L79.385,70.97 C77.269,70.72 75.351,72.233 75.102,74.349 C74.852,76.465 76.365,78.383 78.481,78.632" id="Fill-328" fill="#90694B"></path>
            <path d="M66.263,30.547 L66.263,30.547 C52.288,32.594 38.024,25.394 35.976,11.418 L88.265,11.814 C87.451,20.844 80.241,28.499 66.263,30.547" id="Fill-331" fill="#90694B"></path>
            <path d="M53.369,123.198 C53.369,119.621 57.279,116.721 62.101,116.721 C66.924,116.721 70.834,119.621 70.834,123.198" id="Fill-332" fill="#D59F94"></path>
            <path d="M36.595,128.182 C31.398,128.182 27.186,132.394 27.186,137.591 L27.186,140.275 C27.186,142.136 29.324,143.211 30.79,142.066 C33.954,139.596 39.136,137.605 46.081,137.605 L52.727,137.605 C57.923,137.605 62.136,133.393 62.136,128.196 L62.136,128.182 L36.595,128.182" id="Fill-333" fill="#90694B"></path>
            <path d="M87.642,128.182 C92.839,128.182 97.052,132.394 97.052,137.591 L97.052,140.275 C97.052,142.136 94.914,143.211 93.447,142.066 C90.284,139.596 85.101,137.605 78.157,137.605 L71.511,137.605 C66.314,137.605 62.101,133.393 62.101,128.196 L62.101,128.182 L87.642,128.182" id="Fill-334" fill="#90694B"></path>
            <path d="M72.939,27.988 C72.939,27.988 113.035,11.418 113.035,98.379 C113.035,98.379 123.459,9.6 88.47,7.774 C53.482,5.948 72.939,27.988 72.939,27.988" id="Fill-422" fill="#90694B"></path>
            <path d="M51.326,28.74 C51.326,28.74 11.206,11.418 11.206,95.849 C11.206,95.849 0.805,10.352 35.794,8.526 C70.782,6.7 51.326,28.74 51.326,28.74" id="Fill-423" fill="#90694B"></path>
        </g>
    </g>
</svg>