<?xml version="1.0" encoding="UTF-8" standalone="no"?>
<svg width="170px" height="238px" viewBox="0 0 170 238" version="1.1" xmlns="http://www.w3.org/2000/svg" xmlns:xlink="http://www.w3.org/1999/xlink">
    <!-- Generator: Sketch 39.1 (31720) - http://www.bohemiancoding.com/sketch -->
    <title>ten</title>
    <desc>Created with Sketch.</desc>
    <defs>
        <rect id="path-1" x="122" y="134" width="48" height="27" rx="13.5"></rect>
        <mask id="mask-2" maskContentUnits="userSpaceOnUse" maskUnits="objectBoundingBox" x="0" y="0" width="48" height="27" fill="white">
            <use xlink:href="#path-1"></use>
        </mask>
        <rect id="path-3" x="0" y="134" width="48" height="27" rx="13.5"></rect>
        <mask id="mask-4" maskContentUnits="userSpaceOnUse" maskUnits="objectBoundingBox" x="0" y="0" width="48" height="27" fill="white">
            <use xlink:href="#path-3"></use>
        </mask>
    </defs>
    <g id="Page-1" stroke="none" stroke-width="1" fill="none" fill-rule="evenodd">
        <g id="Artboard-Copy-3" transform="translate(-171.000000, -119.000000)">
            <g id="ten" transform="translate(171.000000, 119.000000)">
                <use id="Rectangle-3" stroke="#CBB396" mask="url(#mask-2)" stroke-width="8" fill="#A98F70" xlink:href="#path-1"></use>
                <use id="Rectangle-3-Copy" stroke="#CBB396" mask="url(#mask-4)" stroke-width="8" fill="#A98F70" xlink:href="#path-3"></use>
                <rect id="Rectangle-Copy-5" fill="#CBB396" x="20" y="36" width="130" height="202" rx="65"></rect>
                <rect id="Rectangle-2" fill="#0C0C0C" x="14" y="17" width="142" height="117"></rect>
                <rect id="Rectangle-Copy-6" fill="#CCB396" x="20" y="61" width="130" height="117" rx="58.5"></rect>
                <rect id="Rectangle-11" fill="#0C0C0C" x="45" y="133" width="29" height="18" rx="9"></rect>
                <rect id="Rectangle-11-Copy" fill="#0C0C0C" x="97" y="133" width="29" height="18" rx="9"></rect>
                <circle id="Oval" fill="#CBB396" cx="111" cy="154" r="16"></circle>
                <circle id="Oval-Copy" fill="#CBB396" cx="59" cy="154" r="16"></circle>
                <rect id="Rectangle-12" fill="#0B0B0B" transform="translate(116.161133, 113.881836) rotate(8.000000) translate(-116.161133, -113.881836) " x="101.661133" y="108.881836" width="29" height="10" rx="5"></rect>
                <rect id="Rectangle-12-Copy" fill="#0B0B0B" transform="translate(56.161133, 113.881836) scale(-1, 1) rotate(8.000000) translate(-56.161133, -113.881836) " x="41.6611328" y="108.881836" width="29" height="10" rx="5"></rect>
                <path d="M61,180 C61,193.254834 71.745166,204 85,204 L85,204 C98.254834,204 109,193.254834 109,180" id="Oval-9" fill="#BEAC96" style="mix-blend-mode: multiply;" opacity="0.563083022"></path>
                <path d="M87.4749751,169.116211 L78.4664312,169.116211 C75.9835091,169.116211 73.9707031,167.096435 73.9707031,164.616211 L73.9707031,164.616211 L73.9707031,164.616211 C73.9707031,162.13093 75.9831373,160.116211 78.4664312,160.116211" id="Rectangle" stroke="#9C8161" stroke-width="4" stroke-linecap="round"></path>
                <path d="M97.4749751,169.116211 L88.4664312,169.116211 C85.9835091,169.116211 83.9707031,167.096435 83.9707031,164.616211 L83.9707031,164.616211 L83.9707031,164.616211 C83.9707031,162.13093 85.9831373,160.116211 88.4664312,160.116211" id="Rectangle-Copy" stroke="#9C8161" stroke-width="4" stroke-linecap="round" transform="translate(90.722839, 164.616211) scale(-1, 1) translate(-90.722839, -164.616211) "></path>
                <path d="M66,184 C66,192.284271 74.5065898,199 85,199 L85,199 C95.4934102,199 104,192.284271 104,184" id="Oval-9-Copy" fill="#FFFFFF"></path>
                <path d="M72.9542072,74.9436175 C83.1726381,74.9436175 91.4563131,66.6599425 91.4563131,56.4415116 C91.4563131,46.2230806 72.9542072,16.5908219 72.9542072,16.5908219 C72.9542072,16.5908219 54.4521012,46.2230806 54.4521012,56.4415116 C54.4521012,66.6599425 62.7357762,74.9436175 72.9542072,74.9436175 Z" id="Oval-10" fill="#0C0C0C" transform="translate(72.954207, 45.767220) rotate(-210.000000) translate(-72.954207, -45.767220) "></path>
                <path d="M87.2278019,38.4936281 C94.3602551,42.1462441 103.480488,39.9786194 107.598411,33.6521029 C111.716335,27.3255863 110.743385,2.36577912 110.743385,2.36577912 C110.743385,2.36577912 85.8874374,14.0982934 81.7695136,20.42481 C77.6515898,26.7513266 80.0953488,34.841012 87.2278019,38.4936281" id="Oval-10-Copy-2" fill="#0C0C0C"></path>
                <path d="M104.153375,37.0638132 C111.285828,40.7164293 120.406061,38.5488046 124.523984,32.222288 C128.641908,25.8957714 127.668958,0.935964282 127.668958,0.935964282 C127.668958,0.935964282 102.81301,12.6684786 98.6950865,18.9949952 C94.5771628,25.3215118 97.0209217,33.4111972 104.153375,37.0638132" id="Oval-10-Copy-3" fill="#0C0C0C"></path>
                <path d="M95.9542072,77.9436175 C106.172638,77.9436175 114.456313,69.6599425 114.456313,59.4415116 C114.456313,49.2230806 95.9542072,19.5908219 95.9542072,19.5908219 C95.9542072,19.5908219 77.4521012,49.2230806 77.4521012,59.4415116 C77.4521012,69.6599425 85.7357762,77.9436175 95.9542072,77.9436175 Z" id="Oval-10-Copy" fill="#0C0C0C" transform="translate(95.954207, 48.767220) rotate(-210.000000) translate(-95.954207, -48.767220) "></path>
            </g>
        </g>
    </g>
</svg>