<?xml version="1.0" encoding="UTF-8" standalone="no"?>
<svg width="194px" height="241px" viewBox="0 0 194 241" version="1.1" xmlns="http://www.w3.org/2000/svg" xmlns:xlink="http://www.w3.org/1999/xlink">
    <!-- Generator: Sketch 39.1 (31720) - http://www.bohemiancoding.com/sketch -->
    <title>vasunin</title>
    <desc>Created with Sketch.</desc>
    <defs>
        <rect id="path-1" x="0" y="108" width="183" height="37" rx="18.5"></rect>
        <mask id="mask-2" maskContentUnits="userSpaceOnUse" maskUnits="objectBoundingBox" x="0" y="0" width="183" height="37" fill="white">
            <use xlink:href="#path-1"></use>
        </mask>
        <rect id="path-3" x="20" y="41" width="142" height="155" rx="71"></rect>
        <mask id="mask-4" maskContentUnits="userSpaceOnUse" maskUnits="objectBoundingBox" x="0" y="0" width="142" height="155" fill="white">
            <use xlink:href="#path-3"></use>
        </mask>
        <path d="M65.7048453,178.533041 C67.524709,172.163519 74.3732515,167 80.9941238,167 L101.005876,167 C107.630048,167 114.475534,172.164371 116.295155,178.533041 L119.704845,190.466959 C121.524709,196.836481 117.626044,202 110.999649,202 L71.0003513,202 C64.3727403,202 60.4755344,196.835629 62.2951547,190.466959 L65.7048453,178.533041 Z" id="path-5"></path>
        <mask id="mask-6" maskContentUnits="userSpaceOnUse" maskUnits="objectBoundingBox" x="0" y="0" width="58.3041615" height="35" fill="white">
            <use xlink:href="#path-5"></use>
        </mask>
    </defs>
    <g id="Page-1" stroke="none" stroke-width="1" fill="none" fill-rule="evenodd">
        <g id="Artboard-Copy-13" transform="translate(-169.000000, -132.000000)">
            <g id="vasunin" transform="translate(169.000000, 132.000000)">
                <rect id="Rectangle-2" fill="#725838" x="20" y="-5.68434189e-14" width="142" height="94"></rect>
                <use id="Rectangle-3" stroke="#FFE9CF" mask="url(#mask-2)" stroke-width="8" fill="#D4BFA5" xlink:href="#path-1"></use>
                <rect id="Rectangle-Copy-3" fill="#725838" x="20" y="57" width="142" height="71"></rect>
                <rect id="Rectangle-Copy-2" fill="#725838" x="20" y="51" width="142" height="190" rx="71"></rect>
                <use id="Rectangle-Copy" stroke="#725838" mask="url(#mask-4)" stroke-width="12" fill="#FFEAD0" xlink:href="#path-3"></use>
                <rect id="Rectangle" fill="#725838" x="20" y="46" width="142" height="27"></rect>
                <circle id="Oval-12-Copy-3" fill="#725838" cx="94.5" cy="72.5" r="9.5"></circle>
                <path d="M111.5,145 C118.403559,145 124,139.403559 124,132.5 C124,125.596441 118.403559,126 111.5,126 C104.596441,126 99,125.596441 99,132.5 C99,139.403559 104.596441,145 111.5,145 Z" id="Oval-11" fill="#2E1F0E"></path>
                <path d="M71.5,145 C78.4035594,145 84,139.403559 84,132.5 C84,125.596441 78.4035594,126 71.5,126 C64.5964406,126 59,125.596441 59,132.5 C59,139.403559 64.5964406,145 71.5,145 Z" id="Oval-11-Copy" fill="#2E1F0E"></path>
                <use id="Rectangle-13" stroke="#725838" mask="url(#mask-6)" stroke-width="20" xlink:href="#path-5"></use>
                <rect id="Rectangle-28" fill="#FFE9CF" x="26" y="45" width="59" height="63"></rect>
                <circle id="Oval-Copy" fill="#FFE9CF" cx="80" cy="190" r="7"></circle>
                <circle id="Oval-Copy-2" fill="#FFE9CF" cx="102" cy="190" r="7"></circle>
                <rect id="Rectangle-14-Copy" fill="#725838" x="56" y="108" width="30" height="9" rx="4.5"></rect>
                <rect id="Rectangle-28-Copy" fill="#FFE9CF" x="104" y="41" width="52" height="69"></rect>
                <path d="M110.375879,26.4145502 C115.106715,23.8425891 121.336028,25.0911822 124.28944,29.2033611 C127.242851,33.3155399 125.292936,47.1842973 125.292936,47.1842973 C125.292936,47.1842973 110.110978,42.629435 107.157567,38.5172562 C104.204156,34.4050773 105.645043,28.9865113 110.375879,26.4145502" id="Oval-24-Copy-3" fill="#725838"></path>
                <path d="M121.231036,26.0139411 C125.961872,23.44198 132.191185,24.6905732 135.144597,28.802752 C138.098008,32.9149308 136.148093,46.7836883 136.148093,46.7836883 C136.148093,46.7836883 120.966135,42.2288259 118.012724,38.1166471 C115.059313,34.0044683 116.5002,28.5859023 121.231036,26.0139411" id="Oval-24-Copy-2" fill="#725838"></path>
                <rect id="Rectangle-14-Copy-2" fill="#725838" x="97" y="108" width="30" height="9" rx="4.5"></rect>
                <path d="M193.926544,20 C191.139763,25.7410299 167.521316,73.6216721 150.715184,82.5155619 C132.83082,91.980057 111.856726,85.1409391 103.868235,67.2399643 C95.879743,49.3389896 103.901932,27.154893 121.786296,17.6903979 C123.284814,16.8973749 125.040591,16.2495064 126.999996,15.728035 L127,20 L193.926544,20 Z" id="Combined-Shape" fill="#725838"></path>
            </g>
        </g>
    </g>
</svg>